<?xml version="1.0" standalone="no"?>
<!DOCTYPE svg PUBLIC "-//W3C//DTD SVG 1.1//EN" "http://www.w3.org/Graphics/SVG/1.1/DTD/svg11.dtd" >
<svg xmlns="http://www.w3.org/2000/svg">
<defs>
  <font id="bl-icons" horiz-adv-x="3272.7275">
    <font-face font-family="bl-icons"
      units-per-em="1000" ascent="1000"
      descent="0" />
    <missing-glyph horiz-adv-x="0" />
    <glyph glyph-name="action"
      unicode="&#xEA01;"
      horiz-adv-x="1125" d="M218.3837499999999 932.773125C211.0562499999999 932.710625 204.0487499999999 929.760625 198.8524999999999 924.594375L73.8524999999999 799.594375C62.8568749999999 788.608125 62.8568749999999 770.785625 73.8524999999999 759.799375L198.8524999999999 634.799375C209.8387499999999 623.80375 227.6612499999999 623.80375 238.6474999999999 634.799375L363.6474999999999 759.799375C374.643125 770.785625 374.643125 788.608125 363.6474999999999 799.594375L238.6474999999999 924.594375A28.1375 28.1375 0 0 1 218.3837499999999 932.773125M905.8837499999998 932.773125C898.55625 932.710625 891.5487499999999 929.760625 886.3524999999998 924.594375L761.3524999999998 799.594375C750.3568749999998 788.608125 750.3568749999998 770.785625 761.3524999999998 759.799375L886.3524999999998 634.799375C897.3387499999999 623.80375 915.1612499999998 623.80375 926.1475 634.799375L1051.1475 759.799375C1062.143125 770.785625 1062.143125 788.608125 1051.1475 799.594375L926.1475 924.594375A28.1375 28.1375 0 0 1 905.8837499999998 932.773125M529.1749999999998 510.898125A28.1875 28.1875 0 0 1 510.6199999999999 501.865L323.1199999999999 298.74C312.8843749999999 287.6631250000001 313.2068749999999 270.4843749999999 323.8512499999998 259.799375L511.3512499999998 72.2993749999999C522.3374999999999 61.3037499999998 540.1599999999999 61.3037499999998 551.1462499999999 72.2993749999999L738.6462499999998 259.799375C749.2906249999997 270.4843749999999 749.6131249999997 287.6631250000001 739.3774999999998 298.74L551.8774999999998 501.865A28.125 28.125 0 0 1 529.1724999999998 510.8981249999999zM531.2499999999999 441.44L679.8093749999998 280.429375L531.2499999999999 131.9918749999999L382.690625 280.5512499999999zM320.0681249999999 935.946875L410.0343749999999 845.98125C446.6318749999999 809.36875 446.6318749999999 750.025 410.0343749999999 713.4124999999999L320.0681249999999 623.446875H804.9318749999999L714.9656249999998 713.4124999999999C678.3681249999998 750.025 678.3681249999998 809.36875 714.9656249999998 845.98125L804.9318749999998 935.946875z" />
    <glyph glyph-name="action_slot"
      unicode="&#xEA02;"
      horiz-adv-x="1125" d="M218.3837499999999 932.773125C211.0562499999999 932.710625 204.0487499999999 929.760625 198.8524999999999 924.594375L73.8524999999999 799.594375C62.8568749999999 788.608125 62.8568749999999 770.785625 73.8524999999999 759.799375L198.8524999999999 634.799375C209.8387499999999 623.80375 227.6612499999999 623.80375 238.6474999999999 634.799375L363.6474999999999 759.799375C374.643125 770.785625 374.643125 788.608125 363.6474999999999 799.594375L238.6474999999999 924.594375A28.1375 28.1375 0 0 1 218.3837499999999 932.773125M905.8837499999998 932.773125C898.55625 932.710625 891.5487499999999 929.760625 886.3524999999998 924.594375L761.3524999999998 799.594375C750.3568749999998 788.608125 750.3568749999998 770.785625 761.3524999999998 759.799375L886.3524999999998 634.799375C897.3387499999999 623.80375 915.1612499999998 623.80375 926.1475 634.799375L1051.1475 759.799375C1062.143125 770.785625 1062.143125 788.608125 1051.1475 799.594375L926.1475 924.594375A28.1375 28.1375 0 0 1 905.8837499999998 932.773125M320.0681249999999 935.946875L410.0343749999999 845.98125C446.6318749999999 809.36875 446.6318749999999 750.025 410.0343749999999 713.4124999999999L320.0681249999999 623.446875H804.9318749999999L714.9656249999998 713.4124999999999C678.3681249999998 750.025 678.3681249999998 809.36875 714.9656249999998 845.98125L804.9318749999998 935.946875zM593.7499999999999 312.499375C576.4918749999998 312.499375 562.5018749999999 298.5075000000001 562.4999999999999 281.249375V156.249375C562.5018749999999 138.99125 576.4918749999998 125.00125 593.7499999999999 124.999375H968.7499999999998C986.008125 124.999375 999.998125 138.99125 999.9999999999998 156.249375V281.249375C999.9999999999998 298.5075000000001 986.008125 312.4975000000001 968.7499999999998 312.499375zM249.9999999999999 500V218.75C250.0018749999999 201.4918749999999 263.991875 187.5018749999999 281.2499999999999 187.5H499.9999999999999V250H312.4999999999999V500z" />
    <glyph glyph-name="action_tweak"
      unicode="&#xEA03;"
      horiz-adv-x="1000" d="M405.628359375 562.490625C382.9677343750001 562.553125 367.6533593750001 539.57125 376.590859375 518.91125L565.580859375 81.41125C577.015859375 55.0456250000001 615.2221093750001 56.6331250000001 624.3939843750001 83.855L682.345859375 256.584375L856.4477343750001 314.0793750000001C883.8858593750001 323.179375 885.486484375 361.084375 858.9108593750001 372.4287500000001L417.9346093750001 559.92875A31.78125 31.78125 0 0 1 405.628359375 562.49125zM216.1464843750001 934.316875A28.39375 28.39375 0 0 1 196.4596093750001 926.138125L70.466484375 801.138125C59.383359375 790.151875 59.383359375 772.329375 70.466484375 761.343125L196.4602343750001 636.343125C207.5333593750001 625.3475000000001 225.4977343750001 625.3475000000001 236.5708593750001 636.343125L362.5646093750001 761.343125C373.647109375 772.329375 373.647109375 790.151875 362.5646093750001 801.138125L236.5708593750001 926.138125C231.1533593750001 931.481875 223.7871093750001 934.433125 216.1458593750001 934.316875M783.115234375 934.316875A28.39375 28.39375 0 0 1 763.4289843749999 926.138125L637.4352343749999 801.138125C626.352734375 790.151875 626.352734375 772.329375 637.4352343749999 761.343125L763.4289843749999 636.343125C774.5027343749999 625.3475000000001 792.4664843749999 625.3475000000001 803.5402343750001 636.343125L929.533984375 761.343125C940.616484375 772.329375 940.616484375 790.151875 929.533984375 801.138125L803.5402343750001 926.138125C798.122734375 931.481875 790.756484375 934.433125 783.115234375 934.316875M318.638359375 937.490625L409.319609375 847.525C446.208359375 810.9125 446.208359375 751.56875 409.319609375 714.95625L318.638359375 624.990625H681.3621093749999L590.680859375 714.95625C553.792734375 751.56875 553.792734375 810.9125 590.680859375 847.525L681.3621093749999 937.490625z" />
    <glyph glyph-name="add"
      unicode="&#xEA04;"
      horiz-adv-x="1000" d="M500.6213636363636 910.9A45.4590909090909 45.4590909090909 0 0 1 454.6340909090908 864.9127272727272V546.5545454545454H136.275909090909A45.4590909090909 45.4590909090909 0 1 1 136.275909090909 455.8236363636363H454.6340909090908V137.4636363636364A45.4590909090909 45.4590909090909 0 1 1 545.3659090909091 137.4636363636364V455.8236363636363H863.7240909090908A45.4590909090909 45.4590909090909 0 1 1 863.7240909090908 546.5545454545454H545.3659090909091V864.9127272727272A45.4590909090909 45.4590909090909 0 0 1 500.6213636363636 910.9" />
    <glyph glyph-name="aliased"
      unicode="&#xEA05;"
      horiz-adv-x="1000" d="M312.5 937.5V812.5H687.5V937.5zM687.5 812.5V687.5H812.5V812.5zM812.5 687.5V312.5H937.5V687.5zM812.5 312.5H687.5V187.5H812.5zM687.5 187.5H312.5V62.5H687.5zM312.5 187.5V312.5H187.5V187.5zM187.5 312.5V687.5H62.5V312.5zM187.5 687.5H312.5V812.5H187.5z" />
    <glyph glyph-name="align_bottom"
      unicode="&#xEA06;"
      horiz-adv-x="1000" d="M218.261875 375A31.253125 31.253125 0 1 1 218.261875 312.5H780.395625A31.253125 31.253125 0 1 1 780.395625 375zM218.261875 250A31.253125 31.253125 0 1 1 218.261875 187.5H780.395625A31.253125 31.253125 0 1 1 780.395625 250zM93.75 937.5A31.253125 31.253125 0 0 1 62.5 906.25V93.75A31.253125 31.253125 0 0 1 93.75 62.5H906.25A31.253125 31.253125 0 0 1 937.5 93.75V906.25A31.253125 31.253125 0 0 1 906.25 937.5zM125 875H875V125H125z" />
    <glyph glyph-name="align_center"
      unicode="&#xEA07;"
      horiz-adv-x="1066.6666666666665" d="M100.1953333333333 933.3333333333334A33.3366666666667 33.3366666666667 0 1 1 100.1953333333333 866.6666666666667H966.4713333333332A33.3366666666667 33.3366666666667 0 1 1 966.4713333333332 933.3333333333334zM366.862 733.3333333333334A33.3366666666667 33.3366666666667 0 1 1 366.862 666.6666666666667H699.8046666666665A33.3366666666667 33.3366666666667 0 1 1 699.8046666666665 733.3333333333334zM100.1953333333333 533.3333333333334A33.3366666666667 33.3366666666667 0 1 1 100.1953333333333 466.6666666666667H966.4713333333332A33.3366666666667 33.3366666666667 0 1 1 966.4713333333332 533.3333333333334zM366.862 333.3333333333334A33.3366666666667 33.3366666666667 0 1 1 366.862 266.6666666666668H699.8046666666665A33.3366666666667 33.3366666666667 0 1 1 699.8046666666665 333.3333333333334zM100.1953333333333 133.3333333333334A33.3366666666667 33.3366666666667 0 1 1 100.1953333333333 66.6666666666667H966.4713333333332A33.3366666666667 33.3366666666667 0 1 1 966.4713333333332 133.3333333333334z" />
    <glyph glyph-name="align_flush"
      unicode="&#xEA08;"
      horiz-adv-x="1066.6666666666665" d="M100.2603333333333 933.3333333333334A33.3366666666667 33.3366666666667 0 1 1 100.2603333333333 866.6666666666667H233.0729999999999A33.3366666666667 33.3366666666667 0 1 1 233.0729999999999 933.3333333333334zM368.4896666666666 933.3333333333334A33.3366666666667 33.3366666666667 0 1 1 368.4896666666666 866.6666666666667H496.2236666666665A33.3366666666667 33.3366666666667 0 1 1 496.2236666666665 933.3333333333334zM633.2029999999999 933.3333333333334A33.3366666666667 33.3366666666667 0 1 1 633.2029999999999 866.6666666666667H766.4063333333332A33.3366666666667 33.3366666666667 0 1 1 766.4063333333332 933.3333333333334zM899.7396666666665 933.3333333333334A33.3366666666667 33.3366666666667 0 1 1 899.7396666666665 866.6666666666667H966.4063333333332A33.3366666666667 33.3366666666667 0 1 1 966.4063333333332 933.3333333333334zM100.2603333333333 733.3333333333334A33.3366666666667 33.3366666666667 0 1 1 100.2603333333333 666.6666666666667H166.9269999999999A33.3366666666667 33.3366666666667 0 1 1 166.9269999999999 733.3333333333334zM300.2603333333333 733.3333333333334A33.3366666666667 33.3366666666667 0 1 1 300.2603333333333 666.6666666666667H433.4636666666666A33.3366666666667 33.3366666666667 0 1 1 433.4636666666666 733.3333333333334zM570.4423333333333 733.3333333333334A33.3366666666667 33.3366666666667 0 1 1 570.4423333333333 666.6666666666667H698.3069999999999A33.3366666666667 33.3366666666667 0 1 1 698.3069999999999 733.3333333333334zM833.5936666666665 733.3333333333334A33.3366666666667 33.3366666666667 0 1 1 833.5936666666665 666.6666666666667H966.4063333333332A33.3366666666667 33.3366666666667 0 1 1 966.4063333333332 733.3333333333334zM100.2603333333332 533.3333333333334A33.3366666666667 33.3366666666667 0 1 1 100.2603333333332 466.6666666666667H233.0729999999999A33.3366666666667 33.3366666666667 0 1 1 233.0729999999999 533.3333333333334zM368.4896666666666 533.3333333333334A33.3366666666667 33.3366666666667 0 1 1 368.4896666666666 466.6666666666667H496.2236666666665A33.3366666666667 33.3366666666667 0 1 1 496.2236666666665 533.3333333333334zM633.2029999999999 533.3333333333334A33.3366666666667 33.3366666666667 0 1 1 633.2029999999999 466.6666666666667H766.4063333333332A33.3366666666667 33.3366666666667 0 1 1 766.4063333333332 533.3333333333334zM899.7396666666665 533.3333333333334A33.3366666666667 33.3366666666667 0 1 1 899.7396666666665 466.6666666666667H966.4063333333332A33.3366666666667 33.3366666666667 0 1 1 966.4063333333332 533.3333333333334zM100.2603333333333 333.3333333333334A33.3366666666667 33.3366666666667 0 1 1 100.2603333333333 266.6666666666668H166.9269999999999A33.3366666666667 33.3366666666667 0 1 1 166.9269999999999 333.3333333333334zM300.2603333333333 333.3333333333334A33.3366666666667 33.3366666666667 0 1 1 300.2603333333333 266.6666666666668H433.4636666666666A33.3366666666667 33.3366666666667 0 1 1 433.4636666666666 333.3333333333334zM570.4423333333333 333.3333333333334A33.3366666666667 33.3366666666667 0 1 1 570.4423333333333 266.6666666666668H698.3069999999999A33.3366666666667 33.3366666666667 0 1 1 698.3069999999999 333.3333333333334zM833.5936666666665 333.3333333333334A33.3366666666667 33.3366666666667 0 1 1 833.5936666666665 266.6666666666668H966.4063333333332A33.3366666666667 33.3366666666667 0 1 1 966.4063333333332 333.3333333333334zM100.2603333333332 133.3333333333334A33.3366666666667 33.3366666666667 0 1 1 100.2603333333332 66.6666666666667H233.0729999999999A33.3366666666667 33.3366666666667 0 1 1 233.0729999999999 133.3333333333334zM368.4896666666666 133.3333333333334A33.3366666666667 33.3366666666667 0 1 1 368.4896666666666 66.6666666666667H496.2236666666665A33.3366666666667 33.3366666666667 0 1 1 496.2236666666665 133.3333333333334zM633.2029999999999 133.3333333333334A33.3366666666667 33.3366666666667 0 1 1 633.2029999999999 66.6666666666667H766.4063333333332A33.3366666666667 33.3366666666667 0 1 1 766.4063333333332 133.3333333333334zM899.7396666666665 133.3333333333334A33.3366666666667 33.3366666666667 0 1 1 899.7396666666665 66.6666666666667H966.4063333333332A33.3366666666667 33.3366666666667 0 1 1 966.4063333333332 133.3333333333334z" />
    <glyph glyph-name="align_justify"
      unicode="&#xEA09;"
      horiz-adv-x="1066.6666666666665" d="M100.1953333333333 933.3333333333334A33.3366666666667 33.3366666666667 0 1 1 100.1953333333333 866.6666666666667H966.4713333333332A33.3366666666667 33.3366666666667 0 1 1 966.4713333333332 933.3333333333334zM100.1953333333333 733.3333333333334A33.3366666666667 33.3366666666667 0 1 1 100.1953333333333 666.6666666666667H966.4713333333332A33.3366666666667 33.3366666666667 0 1 1 966.4713333333332 733.3333333333334zM100.1953333333333 533.3333333333334A33.3366666666667 33.3366666666667 0 1 1 100.1953333333333 466.6666666666667H966.4713333333332A33.3366666666667 33.3366666666667 0 1 1 966.4713333333332 533.3333333333334zM100.1953333333333 333.3333333333334A33.3366666666667 33.3366666666667 0 1 1 100.1953333333333 266.6666666666668H966.4713333333332A33.3366666666667 33.3366666666667 0 1 1 966.4713333333332 333.3333333333334zM100.1953333333333 133.3333333333334A33.3366666666667 33.3366666666667 0 1 1 100.1953333333333 66.6666666666667H966.4713333333332A33.3366666666667 33.3366666666667 0 1 1 966.4713333333332 133.3333333333334z" />
    <glyph glyph-name="align_left"
      unicode="&#xEA0A;"
      horiz-adv-x="1066.6666666666665" d="M100.2599999999999 933.3333333333334A33.3366666666667 33.3366666666667 0 1 1 100.2599999999999 866.6666666666667H966.4066666666666A33.3366666666667 33.3366666666667 0 1 1 966.4066666666666 933.3333333333334zM100.2599999999999 733.3333333333334A33.3366666666667 33.3366666666667 0 1 1 100.2599999999999 666.6666666666667H499.7399999999999A33.3366666666667 33.3366666666667 0 1 1 499.7399999999999 733.3333333333334zM100.2599999999999 533.3333333333334A33.3366666666667 33.3366666666667 0 1 1 100.2599999999999 466.6666666666667H966.4066666666666A33.3366666666667 33.3366666666667 0 1 1 966.4066666666666 533.3333333333334zM100.2599999999999 333.3333333333334A33.3366666666667 33.3366666666667 0 1 1 100.2599999999999 266.6666666666668H499.7399999999999A33.3366666666667 33.3366666666667 0 1 1 499.7399999999999 333.3333333333334zM100.2599999999999 133.3333333333334A33.3366666666667 33.3366666666667 0 1 1 100.2599999999999 66.6666666666667H966.4066666666666A33.3366666666667 33.3366666666667 0 1 1 966.4066666666666 133.3333333333334z" />
    <glyph glyph-name="align_middle"
      unicode="&#xEA0B;"
      horiz-adv-x="1000" d="M218.261875 625A31.253125 31.253125 0 1 1 218.261875 562.5H780.395625A31.253125 31.253125 0 1 1 780.395625 625zM218.261875 500A31.253125 31.253125 0 1 1 218.261875 437.5H780.395625A31.253125 31.253125 0 1 1 780.395625 500zM93.75 937.5A31.253125 31.253125 0 0 1 62.5 906.25V93.75A31.253125 31.253125 0 0 1 93.75 62.5H906.25A31.253125 31.253125 0 0 1 937.5 93.75V906.25A31.253125 31.253125 0 0 1 906.25 937.5zM125 875H875V125H125z" />
    <glyph glyph-name="align_right"
      unicode="&#xEA0C;"
      horiz-adv-x="1066.6666666666665" d="M100.1953333333333 933.3333333333334A33.3366666666667 33.3366666666667 0 1 1 100.1953333333333 866.6666666666667H966.4713333333332A33.3366666666667 33.3366666666667 0 1 1 966.4713333333332 933.3333333333334zM566.862 733.3333333333334A33.3366666666667 33.3366666666667 0 1 1 566.862 666.6666666666667H966.4713333333332A33.3366666666667 33.3366666666667 0 1 1 966.4713333333332 733.3333333333334zM100.1953333333333 533.3333333333334A33.3366666666667 33.3366666666667 0 1 1 100.1953333333333 466.6666666666667H966.4713333333332A33.3366666666667 33.3366666666667 0 1 1 966.4713333333332 533.3333333333334zM566.862 333.3333333333334A33.3366666666667 33.3366666666667 0 1 1 566.862 266.6666666666668H966.4713333333332A33.3366666666667 33.3366666666667 0 1 1 966.4713333333332 333.3333333333334zM100.1953333333333 133.3333333333334A33.3366666666667 33.3366666666667 0 1 1 100.1953333333333 66.6666666666667H966.4713333333332A33.3366666666667 33.3366666666667 0 1 1 966.4713333333332 133.3333333333334z" />
    <glyph glyph-name="align_top"
      unicode="&#xEA0D;"
      horiz-adv-x="1000" d="M218.261875 812.5A31.253125 31.253125 0 1 1 218.261875 750H780.395625A31.253125 31.253125 0 1 1 780.395625 812.5zM218.261875 687.5A31.253125 31.253125 0 1 1 218.261875 625H780.395625A31.253125 31.253125 0 1 1 780.395625 687.5zM93.75 937.5A31.253125 31.253125 0 0 1 62.5 906.25V93.75A31.253125 31.253125 0 0 1 93.75 62.5H906.25A31.253125 31.253125 0 0 1 937.5 93.75V906.25A31.253125 31.253125 0 0 1 906.25 937.5zM125 875H875V125H125z" />
    <glyph glyph-name="anchor_bottom"
      unicode="&#xEA0E;"
      horiz-adv-x="1066.6666666666665" d="M100.2603333333332 266.6600000000001C55.1829999999999 265.9933333333334 55.1829999999999 333.9666666666667 100.2603333333332 333.3266666666667H304.8176666666666C292.5396666666666 312.6066666666668 283.0116666666666 290.3200000000001 276.6923333333332 266.6600000000001zM790.495 266.6600000000001C784.175 290.3200000000001 774.6476666666667 312.6066666666668 762.3696666666666 333.3266666666667H966.4063333333334C1011.4836666666666 333.9933333333334 1011.4836666666666 266.02 966.4063333333334 266.6600000000001zM100.2603333333333 466.6600000000001C55.183 465.9933333333333 55.183 533.9666666666667 100.2603333333333 533.3266666666667H966.4063333333332C1011.4836666666666 533.9933333333333 1011.4836666666666 466.02 966.4063333333332 466.6600000000001zM100.2603333333333 666.6600000000001C55.183 665.9933333333333 55.183 733.9666666666667 100.2603333333333 733.3266666666667H966.4063333333332C1011.4836666666666 733.9933333333333 1011.4836666666666 666.02 966.4063333333332 666.6600000000001zM100.2603333333333 866.6600000000001C55.183 865.9933333333333 55.183 933.9666666666666 100.2603333333333 933.3266666666668H966.4063333333332C1011.4836666666666 933.9933333333335 1011.4836666666666 866.02 966.4063333333332 866.6600000000001zM633.5936666666665 199.9933333333334A100 100 0 0 1 533.5936666666665 299.9933333333334A100 100 0 0 1 433.5936666666666 199.9933333333334A100 100 0 0 1 533.5936666666665 99.9933333333333A100 100 0 0 1 633.5936666666665 199.9933333333334" />
    <glyph glyph-name="anchor_center"
      unicode="&#xEA0F;"
      horiz-adv-x="1333.3333333333335" d="M125.3254166666666 916.6666666666666C68.9787499999999 917.5 68.9787499999999 832.5333333333333 125.3254166666666 833.3333333333333H1208.0079166666665C1264.3545833333333 832.5 1264.3545833333333 917.4666666666666 1208.0079166666665 916.6666666666666zM125.3254166666666 666.6666666666666C68.9787499999999 667.5 68.9787499999999 582.5333333333333 125.3254166666666 583.3333333333333H345.2145833333333C353.1145833333333 612.9083333333333 365.02375 640.7666666666667 380.3712499999999 666.6666666666666zM952.31125 666.6666666666666C967.65875 640.7666666666667 979.5687500000003 612.9083333333333 987.4679166666668 583.3333333333333H1208.007916666667C1264.3545833333335 582.5 1264.3545833333335 667.4666666666667 1208.007916666667 666.6666666666666zM125.3254166666666 416.6666666666667C68.9787499999999 417.5 68.9787499999999 332.5333333333333 125.3254166666666 333.3333333333333H380.3712499999999C365.02375 359.2333333333334 353.1137499999999 387.0916666666666 345.2145833333333 416.6666666666667zM987.4679166666664 416.6666666666667C979.5679166666664 387.0916666666666 967.6587499999998 359.2333333333334 952.3112499999997 333.3333333333333H1208.0079166666662C1264.354583333333 332.5 1264.354583333333 417.4666666666667 1208.0079166666662 416.6666666666667zM125.3254166666666 166.6666666666666C68.9787499999999 167.5 68.9787499999999 82.5333333333333 125.3254166666666 83.3333333333333H1208.0079166666665C1264.3545833333333 82.5 1264.3545833333333 167.4666666666667 1208.0079166666665 166.6666666666666zM541.34125 499.9833333333333A125 125 0 0 0 666.34125 624.9833333333333A125 125 0 0 0 791.34125 499.9833333333333A125 125 0 0 0 666.34125 374.9833333333334A125 125 0 0 0 541.34125 499.9833333333333" />
    <glyph glyph-name="anchor_left"
      unicode="&#xEA10;"
      horiz-adv-x="1333.3333333333335" d="M187.52875 916.6666666666666C131.1820833333333 917.5 131.1820833333333 832.5333333333333 187.52875 833.3333333333333H1186.8779166666668C1243.2245833333334 832.5 1243.2245833333334 917.4666666666666 1186.8779166666668 916.6666666666666zM515.1654166666666 666.6666666666666C530.5129166666667 640.7666666666667 542.4229166666667 612.9083333333333 550.3220833333334 583.3333333333333H1186.8779166666666C1243.2245833333334 582.5 1243.2245833333334 667.4666666666667 1186.8779166666666 666.6666666666666zM550.3220833333334 416.6666666666667C542.4220833333333 387.0916666666666 530.5129166666667 359.2333333333334 515.1654166666666 333.3333333333333H1186.8779166666666C1243.2245833333334 332.5 1243.2245833333334 417.4666666666667 1186.8779166666666 416.6666666666667zM187.52875 166.6666666666666C131.1820833333333 167.5 131.1820833333333 82.5333333333333 187.52875 83.3333333333333H1186.8779166666666C1243.2245833333334 82.5 1243.2245833333334 167.4666666666667 1186.8779166666666 166.6666666666666zM354.1954166666667 499.9833333333333A125 125 0 0 1 229.1954166666667 624.9833333333333A125 125 0 0 1 104.1954166666667 499.9833333333333A125 125 0 0 1 229.1954166666667 374.9833333333334A125 125 0 0 1 354.1954166666667 499.9833333333333" />
    <glyph glyph-name="anchor_right"
      unicode="&#xEA11;"
      horiz-adv-x="1333.3333333333335" d="M1145.8045833333335 916.6666666666666C1202.15125 917.5 1202.15125 832.5333333333333 1145.8045833333335 833.3333333333333H146.4554166666668C90.1087500000001 832.5 90.1087500000001 917.4666666666666 146.4554166666668 916.6666666666666zM818.1679166666669 666.6666666666666C802.8204166666668 640.7666666666667 790.910416666667 612.9083333333333 783.0112500000002 583.3333333333333H146.4554166666668C90.1087500000001 582.5 90.1087500000001 667.4666666666667 146.4554166666668 666.6666666666666zM783.0112500000002 416.6666666666667C790.9112500000002 387.0916666666666 802.8204166666668 359.2333333333334 818.1679166666669 333.3333333333333H146.4554166666668C90.1087500000001 332.5 90.1087500000001 417.4666666666667 146.4554166666668 416.6666666666667zM1145.8045833333335 166.6666666666666C1202.1512500000003 167.5 1202.1512500000003 82.5333333333333 1145.8045833333335 83.3333333333333H146.4554166666668C90.1087500000001 82.5 90.1087500000001 167.4666666666667 146.4554166666668 166.6666666666666zM979.1379166666668 499.9833333333333A125 125 0 0 0 1104.1379166666666 624.9833333333333A125 125 0 0 0 1229.1379166666666 499.9833333333333A125 125 0 0 0 1104.1379166666666 374.9833333333334A125 125 0 0 0 979.1379166666668 499.9833333333333" />
    <glyph glyph-name="anchor_top"
      unicode="&#xEA12;"
      horiz-adv-x="1066.6666666666665" d="M100.2603333333332 733.3333333333334C55.1829999999999 734 55.1829999999999 666.0266666666666 100.2603333333332 666.6666666666667H304.8176666666666C292.5396666666666 687.3866666666667 283.0116666666666 709.6733333333334 276.6923333333332 733.3333333333334zM790.495 733.3333333333334C784.175 709.6733333333334 774.6476666666667 687.3866666666667 762.3696666666666 666.6666666666667H966.4063333333334C1011.4836666666666 666 1011.4836666666666 733.9733333333334 966.4063333333334 733.3333333333334zM100.2603333333332 533.3333333333334C55.1829999999999 534 55.1829999999999 466.0266666666666 100.2603333333332 466.6666666666667H966.4063333333332C1011.4836666666666 466 1011.4836666666666 533.9733333333334 966.4063333333332 533.3333333333334zM100.2603333333332 333.3333333333334C55.1829999999999 334 55.1829999999999 266.0266666666667 100.2603333333332 266.6666666666668H966.4063333333332C1011.4836666666666 266 1011.4836666666666 333.9733333333334 966.4063333333332 333.3333333333334zM100.2603333333332 133.3333333333334C55.1829999999999 134 55.1829999999999 66.0266666666666 100.2603333333332 66.6666666666667H966.4063333333332C1011.4836666666666 66 1011.4836666666666 133.9733333333334 966.4063333333332 133.3333333333334zM633.5936666666665 800A100 100 0 0 0 533.5936666666665 700A100 100 0 0 0 433.5936666666666 800A100 100 0 0 0 533.5936666666665 900A100 100 0 0 0 633.5936666666665 800" />
    <glyph glyph-name="anim"
      unicode="&#xEA13;"
      horiz-adv-x="1000" d="M390.7154883171516 937.72875C464.9342383171516 937.72875 524.2048633171515 894.550625 548.4304883171516 836.410625S561.4148633171516 704.86375 506.5598633171517 650.00875L350.3098633171517 493.75875C311.4148633171517 454.86375 307.0304883171517 411.0825 321.8679883171517 375.473125C336.7048633171517 339.863125 371.1842383171518 312.729375 421.9654883171518 312.729375L830.4123633171517 313.2293749999999L696.7454883171519 446.8956249999999A31.253125 31.253125 0 1 0 740.9348633171518 491.0856249999999L924.2848633171516 307.6137499999999L924.9098633171516 307.1137499999999A31.25 31.25 0 0 0 937.8498633171517 281.1124999999999A31.25 31.25 0 0 0 937.8498633171517 280.6124999999999A31.25 31.25 0 0 0 937.5998633171516 277.6812499999999A31.25 31.25 0 0 0 937.0998633171517 274.6312499999998A31.25 31.25 0 0 0 925.0148633171518 255.9549999999997L740.9323633171517 71.8724999999997A31.253125 31.253125 0 1 0 696.7429883171518 116.0624999999998L831.3867383171518 250.7062499999998L421.9629883171519 250.2062499999999C347.7442383171519 250.2062499999999 288.4729883171518 293.3837499999999 264.2479883171518 351.5237499999999C240.0229883171518 409.6643749999997 251.2636133171518 483.0706249999998 306.1179883171518 537.9256249999997L462.3679883171518 694.1756249999997C501.2636133171518 733.0706249999997 505.6479883171518 776.8518749999998 490.8104883171519 812.4612499999997C475.9729883171518 848.0712499999997 441.4942383171519 875.2056249999997 390.7129883171519 875.2056249999997H93.8379883171518A31.253125 31.253125 0 1 0 93.8379883171518 937.7056249999998z" />
    <glyph glyph-name="anim_data"
      unicode="&#xEA14;"
      horiz-adv-x="1000" d="M390.7154883171516 937.72875C464.9342383171516 937.72875 524.2048633171515 894.550625 548.4304883171516 836.410625S561.4148633171516 704.86375 506.5598633171517 650.00875L350.3098633171517 493.75875C311.4148633171517 454.86375 307.0304883171517 411.0825 321.8679883171517 375.473125C336.7048633171517 339.863125 371.1842383171518 312.729375 421.9654883171518 312.729375L830.4123633171517 313.2293749999999L696.7454883171519 446.8956249999999A31.253125 31.253125 0 1 0 740.9348633171518 491.0856249999999L924.2848633171516 307.6137499999999L924.9098633171516 307.1137499999999A31.25 31.25 0 0 0 937.8498633171517 281.1124999999999A31.25 31.25 0 0 0 937.8498633171517 280.6124999999999A31.25 31.25 0 0 0 937.5998633171516 277.6812499999999A31.25 31.25 0 0 0 937.0998633171517 274.6312499999998A31.25 31.25 0 0 0 925.0148633171518 255.9549999999997L740.9323633171517 71.8724999999997A31.253125 31.253125 0 1 0 696.7429883171518 116.0624999999998L831.3867383171518 250.7062499999998L421.9629883171519 250.2062499999999C347.7442383171519 250.2062499999999 288.4729883171518 293.3837499999999 264.2479883171518 351.5237499999999C240.0229883171518 409.6643749999997 251.2636133171518 483.0706249999998 306.1179883171518 537.9256249999997L462.3679883171518 694.1756249999997C501.2636133171518 733.0706249999997 505.6479883171518 776.8518749999998 490.8104883171519 812.4612499999997C475.9729883171518 848.0712499999997 441.4942383171519 875.2056249999997 390.7129883171519 875.2056249999997H93.8379883171518A31.253125 31.253125 0 1 0 93.8379883171518 937.7056249999998z" />
    <glyph glyph-name="antialiased"
      unicode="&#xEA15;"
      horiz-adv-x="1000" d="M500 937.49625C259.1125 937.49625 62.5 740.88375 62.5 499.99625S259.1125 62.4962500000002 500 62.4962500000002S937.5 259.1087500000001 937.5 499.9962500000001S740.8875 937.4962500000001 500 937.4962500000001M500 812.4962500000001C673.3325 812.4962500000001 812.5 673.3287500000001 812.5 499.9962500000001S673.3325 187.4962500000002 500 187.4962500000002S187.5 326.6637500000002 187.5 499.9962500000001S326.6675 812.4962500000001 500 812.4962500000001" />
    <glyph glyph-name="append_blend"
      unicode="&#xEA16;"
      horiz-adv-x="1000" d="M608.1391054958145 937.633125C552.2584804958145 936.48125 493.8391054958146 914.276875 445.7853554958146 866.2225L133.2853554958146 553.7225000000001C80.9191054958145 501.355625 59.6403554958145 426.1112500000001 63.3391054958145 352.061875S95.5453554958145 203.52375 148.9103554958146 150.1575C202.1691054958145 96.899375 276.2559804958146 67.9906249999999 350.2041054958145 64.098125S499.5416054958145 81.59875 552.4753554958145 134.5325L927.4753554958144 509.5325A31.253125 31.253125 0 1 1 883.2853554958145 553.7225L508.2853554958145 178.7225C470.5903554958145 141.0275 413.1447304958145 123.33625 353.5003554958146 126.4762499999999C293.8566054958146 129.6156249999999 233.5916054958145 153.8556249999999 193.1003554958146 194.3475C152.7159804958146 234.73125 128.7084804958146 295.3499999999999 125.7172304958146 355.2356250000001C122.7259804958146 415.121875 140.5803554958146 472.6381249999999 177.4753554958146 509.5325L489.9753554958145 822.0325C564.0359804958146 896.09375 662.3941054958145 884.806875 712.1428554958145 837.535625C761.9178554958146 790.24 766.0847304958146 686.52125 695.7853554958145 616.2225L414.5353554958146 334.9725C377.4816054958145 297.9181249999999 346.1141054958145 306.9581249999999 325.9128554958145 327.16C305.7109804958145 347.36125 296.6709804958145 378.72875 333.7253554958145 415.7825000000001L552.4753554958145 634.5325A31.253125 31.253125 0 1 1 508.2853554958145 678.7225L289.5353554958146 459.9725C232.8397304958146 403.27625 239.4247304958145 325.26875 281.7228554958146 282.9700000000001S402.0291054958145 234.086875 458.7253554958145 290.7825000000001L739.9753554958145 572.0325C832.6878554958145 664.745 834.9653554958144 807.185 755.2341054958144 882.945625C717.3603554958145 918.933125 664.0197304958145 938.785 608.1391054958145 937.633125" />
    <glyph glyph-name="area_dock"
      unicode="&#xEA17;"
      horiz-adv-x="1000" d="M281.2915625000001 937.5C264.0353125000001 937.5 250.0415625000001 923.50875 250.0415625000001 906.25V281.3987500000001C250.0415625000001 264.1425000000002 264.0353125000001 250.1487500000001 281.2915625000001 250.1487500000001H906.2490625C923.5053125 250.1487500000001 937.4990625 264.1425000000002 937.4990625 281.3987500000001V906.25C937.4990625 923.50875 923.5053125 937.5 906.2490625 937.5zM312.5415625000001 875H874.9990625V312.6487500000001H312.5415625000001zM125.0015625 749.93875H187.5053125L187.5303125 812.43875H93.7509375C76.4921875 812.43875 62.5009375 798.4475 62.5009375 781.18875V93.8206250000001C62.5009375 76.5643750000002 76.4921875 62.5706250000001 93.7509375 62.5706250000001H781.4053125C798.6640625 62.5706250000001 812.6553125 76.5643750000002 812.6553125 93.8206250000001V187.5543749999999S750.1553125 187.716875 750.1553125 187.4481249999999V125.073125H125.0015625z" />
    <glyph glyph-name="area_join"
      unicode="&#xEA18;"
      horiz-adv-x="1000" d="M687.5 125H875V875H687.5V781.25C687.5 763.99375 673.5062499999999 750 656.25 750S625 763.99375 625 781.25V906.25C625 923.50625 638.99375 937.5 656.25 937.5H906.25C923.50625 937.5 937.5 923.50625 937.5 906.25V93.75C937.5 76.49125 923.50625 62.5 906.25 62.5H656.25C638.99375 62.5 625 76.49125 625 93.75V218.75C625 236.00875 638.99375 250 656.25 250S687.5 236.00875 687.5 218.75zM135.416875 875V125H437.5V187.5H500V93.75C500 76.49125 483.676875 62.5 463.541875 62.5H98.958125C78.823125 62.5 62.5 76.49125 62.5 93.75V906.25C62.5 923.50625 78.823125 937.5 98.958125 937.5H463.5418749999999C483.676875 937.5 500 923.50625 500 906.25V812.5H437.5V875zM437.5 625H500V750H437.5zM500 250H437.5V375H500zM803.3499999999999 477.903125L678.3499999999999 352.9031250000001C672.6937499999999 347.2475 664.8812499999999 343.75 656.25 343.75C638.99375 343.75 625 357.740625 625 375V468.75H312.5V531.25H625V625C625 642.25625 638.99375 656.25 656.25 656.25C664.8812499999999 656.25 672.6937499999999 652.75 678.3499999999999 647.1L803.3499999999999 522.1C808.9999999999999 516.44375 812.5 508.63125 812.5 500C812.5 491.37 809 483.5575 803.3499999999999 477.903125" />
    <glyph glyph-name="area_join_down"
      unicode="&#xEA19;"
      horiz-adv-x="1000" d="M125 312.5V125H875V312.5H781.25C763.9937500000001 312.5 750 326.4937500000001 750 343.75S763.9937500000001 375 781.25 375H906.25C923.50625 375 937.5 361.00625 937.5 343.75V93.75C937.5 76.4937500000001 923.50625 62.5 906.25 62.5H93.75C76.49125 62.5 62.5 76.4937500000001 62.5 93.75V343.75C62.5 361.00625 76.49125 375 93.75 375H218.75C236.00875 375 250 361.00625 250 343.75S236.00875 312.5 218.75 312.5zM875 864.583125H125V562.5H187.5V500H93.75C76.49125 500 62.5 516.323125 62.5 536.458125V901.041875C62.5 921.176875 76.49125 937.5 93.75 937.5H906.25C923.50625 937.5 937.5 921.176875 937.5 901.041875V536.4581250000001C937.5 516.3231250000001 923.50625 500.0000000000001 906.25 500.0000000000001H812.5V562.5H875zM625 562.5V500H750V562.5zM250 500V562.5H375V500zM477.903125 196.6500000000001L352.903125 321.6500000000001C347.2475 327.3062500000001 343.75 335.1187500000001 343.75 343.75C343.75 361.00625 357.740625 375 375 375H468.75V687.5H531.25V375H625C642.2562499999999 375 656.25 361.00625 656.25 343.75C656.25 335.1187500000001 652.75 327.3062500000001 647.0999999999999 321.6500000000001L522.0999999999999 196.6500000000001C516.4437499999999 191.0000000000001 508.63125 187.5 499.9999999999999 187.5C491.3699999999999 187.5 483.5574999999999 191 477.9031249999999 196.6500000000001" />
    <glyph glyph-name="area_join_left"
      unicode="&#xEA1A;"
      horiz-adv-x="1000" d="M312.5 875H125V125H312.5V218.75C312.5 236.0062499999999 326.49375 250 343.75 250S375 236.0062499999999 375 218.75V93.75C375 76.4937500000001 361.00625 62.5 343.75 62.5H93.75C76.49375 62.5 62.5 76.4937500000001 62.5 93.75V906.25C62.5 923.50875 76.49375 937.5 93.75 937.5H343.75C361.00625 937.5 375 923.50875 375 906.25V781.25C375 763.99125 361.00625 750 343.75 750S312.5 763.99125 312.5 781.25zM864.5831250000001 125V875H562.5V812.5H500V906.25C500 923.50875 516.323125 937.5 536.458125 937.5H901.0418749999998C921.1768749999998 937.5 937.5 923.50875 937.5 906.25V93.75C937.5 76.4937500000001 921.176875 62.5 901.0418749999998 62.5H536.458125C516.323125 62.5 500 76.4937500000001 500 93.75V187.5H562.5V125zM562.5 375H500V250H562.5zM500 750H562.5V625H500zM196.65 522.096875L321.65 647.096875C327.3062500000001 652.7525 335.1187500000001 656.25 343.75 656.25C361.00625 656.25 375 642.259375 375 625V531.25H687.5V468.75H375V375C375 357.7437500000001 361.00625 343.75 343.75 343.75C335.1187500000001 343.75 327.3062500000001 347.25 321.65 352.9000000000001L196.65 477.9000000000001C191 483.5562500000001 187.5 491.36875 187.5 500C187.5 508.63 191 516.4425 196.65 522.096875" />
    <glyph glyph-name="area_join_up"
      unicode="&#xEA1B;"
      horiz-adv-x="1000" d="M875 687.5V875H125V687.5H218.75C236.00625 687.5 250 673.50625 250 656.25S236.00625 625 218.75 625H93.75C76.49375 625 62.5 638.99375 62.5 656.25V906.25C62.5 923.50625 76.49375 937.5 93.75 937.5H906.25C923.50875 937.5 937.5 923.50625 937.5 906.25V656.25C937.5 638.99375 923.50875 625 906.25 625H781.25C763.99125 625 750 638.99375 750 656.25S763.99125 687.5 781.25 687.5zM125 135.4168749999999H875V437.5H812.5V500H906.25C923.50875 500 937.5 483.676875 937.5 463.541875V98.9581250000001C937.5 78.8231250000001 923.50875 62.5 906.25 62.5H93.75C76.49375 62.5 62.5 78.823125 62.5 98.9581250000001V463.541875C62.5 483.676875 76.49375 500 93.75 500H187.5V437.5H125zM375 437.5V500H250V437.5zM750 500V437.5H625V500zM522.096875 803.35L647.096875 678.35C652.7525 672.69375 656.25 664.88125 656.25 656.25C656.25 638.99375 642.259375 625 625 625H531.25V312.5H468.75V625H375C357.74375 625 343.75 638.99375 343.75 656.25C343.75 664.8812499999999 347.25 672.6937499999999 352.9 678.35L477.9 803.35C483.55625 809 491.36875 812.5 500 812.5C508.63 812.5 516.4425 809 522.096875 803.35" />
    <glyph glyph-name="area_swap"
      unicode="&#xEA1C;"
      horiz-adv-x="1000" d="M875 875H625V781.25C625 763.99125 611.00625 750 593.75 750S562.5 763.99125 562.5 781.25V906.25C562.5 923.50875 576.49375 937.5 593.75 937.5H906.25C923.50625 937.5 937.5 923.50875 937.5 906.25V93.75C937.5 76.4937500000001 923.50625 62.5 906.25 62.5H593.75C576.49375 62.5 562.5 76.4937500000001 562.5 93.75V218.75C562.5 236.0062499999999 576.49375 250 593.75 250S625 236.0062499999999 625 218.75V125H875zM125 875H375V781.25C375 763.99125 388.99125 750 406.25 750S437.5 763.99125 437.5 781.25V906.25C437.5 923.50875 423.50875 937.5 406.25 937.5H93.75C76.49125 937.5 62.5 923.50875 62.5 906.25V93.75C62.5 76.4937500000001 76.49125 62.5 93.75 62.5H406.25C423.50875 62.5 437.5 76.4937500000001 437.5 93.75V218.75C437.5 236.0062499999999 423.50875 250 406.25 250S375 236.0062499999999 375 218.75V125H125zM196.653125 522.096875L321.653125 647.096875C327.3075 652.7525 335.12 656.25 343.75 656.25C361.009375 656.25 375 642.259375 375 625V531.25H625V625C625 642.259375 638.99375 656.25 656.25 656.25C664.8812499999999 656.25 672.6937499999999 652.7525 678.3499999999999 647.096875L803.3499999999999 522.096875C808.9999999999999 516.4425 812.5 508.63 812.5 500C812.5 491.36875 809 483.5562500000001 803.3499999999999 477.9L678.3499999999999 352.8999999999999C672.6937499999999 347.25 664.8812499999999 343.7499999999999 656.25 343.7499999999999C638.99375 343.7499999999999 625 357.7437499999999 625 374.9999999999999V468.75H375V375C375 357.7437500000001 361.009375 343.75 343.75 343.75C335.12 343.75 327.3075 347.25 321.653125 352.9000000000001L196.653125 477.9000000000001C190.9975 483.5562500000001 187.5 491.36875 187.5 500C187.5 508.63 190.9975 516.4425 196.653125 522.096875" />
    <glyph glyph-name="armature_data"
      unicode="&#xEA1D;"
      horiz-adv-x="1000" d="M95.5365585205729 938.07125A31.25 31.25 0 0 0 116.532183520573 927.815L282.059683520573 750.2025H345.047808520573C373.794683520573 712.6087500000001 418.596558520573 687.7025 468.7053085205729 687.7025H268.510308520573A31.25 31.25 0 0 0 245.5609335205729 697.59L70.8784335205729 885.09A31.253125 31.253125 0 0 0 92.3628085205729 938.07125A31.25 31.25 0 0 0 95.5378085205729 938.07125zM468.705308520573 687.7025C518.814058520573 687.7025 563.615933520573 712.6087500000001 592.362808520573 750.2025H718.705308520573A31.25 31.25 0 0 0 740.8003085205731 741.0462500000001L928.3003085205733 553.54625A31.253125 31.253125 0 1 0 884.1103085205731 509.35875L705.7659335205732 687.7025H562.455308520573V448.2025C622.677808520573 345.14625 739.324058520573 216.0025000000001 911.3321835205728 187.33375A31.30375 31.30375 0 1 0 901.078433520573 125.57125C749.4096835205729 150.8462500000001 637.6078085205729 242.0962500000001 563.6759335205728 334.79625H563.3009335205728C500.5240585205729 392.4087500000001 427.4234335205729 397.29625 361.5190585205729 349.69C295.6134335205729 302.0774999999999 250.0678085205729 203.0212499999999 250.0684335205729 93.58375A31.253125 31.253125 0 1 0 187.5684335205729 93.58375C187.5678085205729 219.93375 237.6396835205729 337.3087499999999 324.8978085205728 400.34625C368.5271835205729 431.8649999999999 418.4578085205729 445.5837499999999 467.5978085205728 442.0962499999999C478.4471835205728 441.3462499999999 489.2534335205728 439.40875 499.9465585205728 436.9712499999999A31.25 31.25 0 0 0 499.9465585205728 437.5962499999999V687.5962499999998zM468.705308520573 937.7025C520.111558520573 937.7025 562.455308520573 895.35875 562.455308520573 843.9525S520.111558520573 750.2025 468.705308520573 750.2025S374.955308520573 792.54625 374.955308520573 843.9525S417.299058520573 937.7025 468.705308520573 937.7025" />
    <glyph glyph-name="arrow_leftright"
      unicode="&#xEA1E;"
      horiz-adv-x="1777.7777777777778" d="M1277.3433333333332 889.54A55.5611111111111 55.5611111111111 0 0 1 1238.4977777777776 794.0533333333333L1476.9966666666667 555.5555555555555H300.7811111111111L539.28 794.0533333333333A55.5611111111111 55.5611111111111 0 1 1 460.7199999999999 872.6133333333333L127.3866666666666 539.28A55.5611111111111 55.5611111111111 0 0 1 127.3866666666666 460.7199999999999L460.7199999999999 127.3866666666666A55.5611111111111 55.5611111111111 0 1 1 539.28 205.9466666666665L300.7811111111111 444.4444444444445H1476.9966666666667L1238.497777777778 205.9466666666666A55.5611111111111 55.5611111111111 0 1 1 1317.057777777778 127.3866666666667L1650.3911111111113 460.72A55.5611111111111 55.5611111111111 0 0 1 1650.3911111111113 539.28L1317.057777777778 872.6133333333333A55.5555555555556 55.5555555555556 0 0 1 1277.3433333333335 889.54" />
    <glyph glyph-name="asset_manager"
      unicode="&#xEA1F;"
      horiz-adv-x="1000" d="M531.2371872030205 937.5C513.9790622030205 937.498125 499.9890622030205 923.508125 499.9871872030205 906.25V93.75C499.9890622030205 76.4918749999999 513.9790622030205 62.5018749999999 531.2371872030205 62.5H656.2371872030205C673.4953122030206 62.5018749999999 687.4853122030206 76.4918749999999 687.4871872030205 93.75V906.25C687.4853122030206 923.508125 673.4953122030206 937.498125 656.2371872030205 937.5zM499.9871872030205 594.84875C499.5496872030204 606.3018750000001 492.9184372030205 616.6075000000001 482.6534372030204 621.704375L357.6534372030204 684.204375C342.2134372030205 691.8743750000001 323.4790622030205 685.5918750000001 315.7828122030205 670.16625L65.7828122030205 170.16625C58.1128122030205 154.7262500000001 64.3953122030205 135.9918749999999 79.8209372030205 128.2956250000001L204.8209372030205 65.7956250000001C220.2609372030205 58.1256250000001 238.9953122030205 64.408125 246.6915622030205 79.8337500000001L496.6915622030205 579.8337500000001A31.25 31.25 0 0 1 499.9853122030205 594.8487500000001zM562.4871872030205 875H624.9871872030205V125H562.4871872030205zM781.2371872030205 812.5C763.9790622030205 812.4981250000001 749.9890622030205 798.5081250000001 749.9871872030205 781.25V93.75C749.9890622030205 76.4918749999999 763.9790622030205 62.5018749999999 781.2371872030205 62.5H906.2371872030207C923.4953122030206 62.5018749999999 937.4853122030206 76.4918749999999 937.4871872030207 93.75V781.25C937.4853122030206 798.5081250000001 923.4953122030206 812.4981250000001 906.2371872030207 812.5z" />
    <glyph glyph-name="auto"
      unicode="&#xEA20;"
      horiz-adv-x="1500" d="M416.931077089072 916.6666666666666C315.4652437557387 916.6666666666666 230.108577089072 887.7216666666667 171.3252437557387 828.9391666666667C112.5427437557387 770.1558333333334 83.5977437557387 684.7991666666667 83.5977437557387 583.3333333333333V298.3400000000001A41.6666666666667 41.6666666666667 0 0 1 93.0377437557387 264.6483333333335A41.6666666666667 41.6666666666667 0 0 1 94.3377437557387 263.0233333333333A41.6666666666667 41.6666666666667 0 0 1 95.8044104224053 261.5566666666668L96.1377437557387 261.39A41.6666666666667 41.6666666666667 0 0 1 98.9044104224053 258.79L99.2377437557387 258.6233333333332A41.6666666666667 41.6666666666667 0 0 1 132.1002437557387 250H146.0977437557387A41.6708333333333 41.6708333333333 0 0 1 166.931077089072 327.9625V583.3333333333333C166.931077089072 669.3675 190.0694104224053 729.8441666666666 230.2452437557387 770.0191666666667C270.4202437557387 810.1949999999999 330.8969104224054 833.3333333333333 416.931077089072 833.3333333333333H774.6785770890721L1012.4710770890722 595.54A41.6666666666667 41.6666666666667 0 0 1 1041.931077089072 583.3333333333333H1166.931077089072C1220.1719104224053 583.3333333333333 1260.4727437557387 566.2891666666667 1288.5127437557387 538.2483333333333C1316.5535770890722 510.2083333333333 1333.5977437557387 469.9075 1333.5977437557387 416.6666666666667V291.6666666666667A41.6708333333333 41.6708333333333 0 1 1 1416.931077089072 291.6666666666667V416.6666666666667C1416.931077089072 488.4258333333333 1392.308577089072 552.2916666666666 1347.4327437557388 597.1683333333333C1302.556077089072 642.0441666666666 1238.6902437557387 666.6666666666666 1166.931077089072 666.6666666666666H1059.183577089072L821.391077089072 904.46A41.6666666666667 41.6666666666667 0 0 1 791.931077089072 916.6666666666666zM375.2644104224054 333.3333333333333C306.7227437557387 333.3333333333333 250.2644104224054 276.875 250.2644104224054 208.3333333333333S306.7227437557387 83.3333333333333 375.2644104224054 83.3333333333333S500.2644104224054 139.7916666666666 500.2644104224054 208.3333333333333S443.806077089072 333.3333333333333 375.2644104224054 333.3333333333333M625.2644104224054 333.3333333333333A41.6708333333333 41.6708333333333 0 1 1 625.2644104224054 250H875.2644104224054A41.6708333333333 41.6708333333333 0 1 1 875.2644104224054 333.3333333333333zM1125.2644104224055 333.3333333333333C1056.7227437557387 333.3333333333333 1000.2644104224054 276.875 1000.2644104224054 208.3333333333333S1056.7227437557387 83.3333333333333 1125.2644104224055 83.3333333333333S1250.2644104224055 139.7916666666666 1250.2644104224055 208.3333333333333S1193.806077089072 333.3333333333333 1125.2644104224055 333.3333333333333M375.2644104224054 250C398.7694104224054 250 416.931077089072 231.8383333333334 416.931077089072 208.3333333333333S398.7694104224054 166.6666666666666 375.2644104224054 166.6666666666666S333.5977437557387 184.8283333333333 333.5977437557387 208.3333333333333S351.7594104224053 250 375.2644104224054 250M1125.2644104224055 250C1148.7694104224054 250 1166.931077089072 231.8383333333334 1166.931077089072 208.3333333333333S1148.7694104224054 166.6666666666666 1125.2644104224055 166.6666666666666S1083.5977437557387 184.8283333333333 1083.5977437557387 208.3333333333333S1101.7594104224054 250 1125.2644104224055 250" />
    <glyph glyph-name="automerge_off"
      unicode="&#xEA21;"
      horiz-adv-x="1000" d="M718.5059375 937.74375A31.253125 31.253125 0 0 1 687.2559375 906.49375V718.50625A31.253125 31.253125 0 0 1 718.5059375 687.25625H906.4940625A31.253125 31.253125 0 0 1 937.7440625 718.50625V906.49375A31.253125 31.253125 0 0 1 906.4940625 937.74375zM749.7559375 875.24375H875.2440624999999V749.75625C833.4184374999999 749.75625 791.5821875 749.755 749.7559375 749.75625zM93.5059375 312.7437499999999A31.253125 31.253125 0 0 1 62.2559375 281.4937499999999V93.5062499999999A31.253125 31.253125 0 0 1 93.5059375 62.2562499999999H281.4940625000001A31.253125 31.253125 0 0 1 312.7440625000001 93.5062499999999V281.4937499999999A31.253125 31.253125 0 0 1 281.4940625000001 312.7437499999999zM124.7559375 250.2437499999999H250.2440625V124.7562499999999C208.4184375 124.7562499999999 166.5821875 124.755 124.7559375 124.7562499999999zM468.7503125000001 813.231875A31.25 31.25 0 0 1 446.4109375000001 804.076875L383.9109375000001 741.576875A31.253125 31.253125 0 1 1 428.1009375 697.3868749999999L481.3234375000001 750.6099999999999L530.3953125 750.2349999999999A31.253125 31.253125 0 1 1 530.7703125 812.7349999999999zM280.3953125000001 625.9762499999999A31.25 31.25 0 0 1 258.9109375000001 616.576875L196.4109375000001 554.076875A31.25 31.25 0 0 1 187.2559375000001 531.9818750000001V468.994375A31.253125 31.253125 0 1 1 249.7559375000001 468.994375V519.0425L303.1009375000001 572.386875A31.253125 31.253125 0 0 1 280.3953125000001 625.97625M780.0296875 563.72A31.253125 31.253125 0 0 1 749.2678125 531.9825000000001V481.9331250000001L695.9228125 428.5881250000001A31.253125 31.253125 0 1 1 740.1121875 384.3987500000002L802.6121875 446.8987500000002A31.25 31.25 0 0 1 811.7678124999999 468.9937500000001V531.9818750000001A31.253125 31.253125 0 0 1 780.0296874999999 563.72M592.4071874999998 313.1100000000002A31.25 31.25 0 0 1 570.9228124999998 303.5881250000001L517.7003124999999 250.3656250000002L468.7503124999999 250.7406250000002A31.253125 31.253125 0 1 1 468.2503124999999 188.2406250000001L530.2621875 187.7406250000001A31.25 31.25 0 0 1 552.6009375 196.8956250000001L615.1009375 259.3956250000001A31.253125 31.253125 0 0 1 592.3959375 313.1068750000002z" />
    <glyph glyph-name="automerge_on"
      unicode="&#xEA22;"
      horiz-adv-x="1000" d="M718.5059375 937.74375C701.2478124999999 937.741875 687.2578124999999 923.751875 687.2559375 906.49375V718.50625C687.2578124999999 701.2475 701.2478124999999 687.2574999999999 718.5059375 687.25625H906.4940625C923.7521875 687.2574999999999 937.7421875 701.2475 937.7440625 718.50625V906.49375C937.7421875 923.751875 923.7521875 937.741875 906.4940625 937.74375zM93.5059375 312.7437500000001C76.2478125 312.7418750000002 62.2578125 298.7518750000002 62.2559375 281.4937500000001V93.5062500000001C62.2578125 76.2475000000001 76.2478125 62.2575000000001 93.5059375 62.2562500000001H281.4940625000001C298.7521875 62.2575000000001 312.7421875 76.2475000000001 312.7440625000001 93.5062500000001V281.4937500000001C312.7421875 298.7518750000002 298.7521875 312.7418750000002 281.4940625000001 312.7437500000001zM343.0178125 812.74375A31.253125 31.253125 0 0 1 311.7678125 781.49375V687.74375H218.0178125000001A31.253125 31.253125 0 0 1 186.7678125000001 656.49375L187.2678125000001 468.99375A31.253125 31.253125 0 1 1 249.7678125000001 469.11875L249.3928125000001 625.246875H343.0209375000001A31.253125 31.253125 0 0 1 374.2709375000001 656.496875V750.246875H530.5209375000001A31.253125 31.253125 0 1 1 530.5209375000001 812.746875zM592.8953125 625.9762499999999A31.25 31.25 0 0 1 571.4109375 616.576875L383.9109375000001 428.588125A31.253125 31.253125 0 1 1 428.1009375 384.520625L615.6009375 572.3868749999999A31.253125 31.253125 0 0 1 592.8953125 625.9762499999999M780.5178125 563.2325A31.253125 31.253125 0 0 1 749.7559375 531.4937499999999V375.2437499999999H656.0059375A31.253125 31.253125 0 0 1 624.7559375 343.9937499999999V250.3656249999999L468.6278125 250.731875A31.253125 31.253125 0 1 1 468.3778125 188.231875L655.8778124999999 187.731875A31.253125 31.253125 0 0 1 687.2496874999998 218.981875V312.731875H780.9996874999998A31.253125 31.253125 0 0 1 812.2496874999998 343.981875V531.481875A31.253125 31.253125 0 0 1 780.5178124999999 563.231875" />
    <glyph glyph-name="axis_front"
      unicode="&#xEA23;"
      horiz-adv-x="1066.6666666666665" d="M634.4394721395281 933.8A33.3366666666667 33.3366666666667 0 0 0 667.2521388061948 899.9453333333333V305.9346666666668L979.622138806195 180.9346666666668A33.3666666666667 33.3666666666667 0 1 0 954.882138806195 118.956L633.0074721395283 247.732L111.3928054728616 68.4346666666668A33.3366666666667 33.3366666666667 0 1 0 89.778138806195 131.456L600.5854721395283 307.1066666666666V899.9453333333333A33.3366666666667 33.3366666666667 0 0 0 634.4394721395281 933.7993333333334M500.1948054728616 904.242C518.7561388061949 904.4553333333334 533.918138806195 889.4713333333333 533.9188054728615 870.9086666666667V411.9246666666667C533.9274721395282 397.4200000000001 524.5561388061949 384.5740000000001 510.7414721395283 380.1533333333333L110.7414721395283 251.5080000000001C89.2248054728616 244.6286666666668 67.240138806195 260.6893333333333 67.252138806195 283.2786666666666V742.2633333333333C67.2434721395283 756.768 76.6148054728616 769.6133333333333 90.4294721395283 774.034L490.4294721395283 902.68A33.3333333333333 33.3333333333333 0 0 0 500.1948054728617 904.2426666666667z" />
    <glyph glyph-name="axis_side"
      unicode="&#xEA24;"
      horiz-adv-x="1066.6666666666665" d="M432.2271945271385 933.8A33.3366666666667 33.3366666666667 0 0 1 399.4145278604718 899.9453333333333V305.9346666666668L87.0445278604718 180.9346666666668A33.3666666666667 33.3666666666667 0 1 1 111.7845278604718 118.956L433.6591945271385 247.732L955.2738611938051 68.4346666666668A33.3366666666667 33.3366666666667 0 1 1 976.8885278604718 131.456L466.0811945271385 307.1066666666668V899.9453333333333A33.3366666666667 33.3366666666667 0 0 1 432.2271945271385 933.7993333333334M566.4718611938051 904.242C547.9105278604718 904.4553333333334 532.7485278604718 889.4713333333333 532.7478611938051 870.9086666666667V411.9246666666667C532.7391945271384 397.4200000000001 542.1105278604717 384.5740000000001 555.9251945271384 380.1533333333333L955.9251945271384 251.5080000000001C977.4418611938052 244.6286666666668 999.4265278604717 260.6893333333333 999.4145278604718 283.2786666666666V742.2633333333333C999.4231945271384 756.768 990.051861193805 769.6133333333333 976.2371945271382 774.034L576.2371945271383 902.68A33.3333333333333 33.3333333333333 0 0 1 566.4718611938049 904.2426666666667z" />
    <glyph glyph-name="axis_top"
      unicode="&#xEA25;"
      horiz-adv-x="937.5" d="M469.4825 374.765C465.87625 374.8275 462.2843749999999 374.3275 458.8625 373.1775L83.8625 248.1775C55.31375 238.7056250000001 55.31375 198.323125 83.8625 188.8512500000001L458.8625 63.8512500000001A31.20625 31.20625 0 0 1 478.6375 63.8512500000001L853.6375 188.8512500000001C882.18625 198.323125 882.18625 238.7056250000001 853.6375 248.1775L478.6375 373.1775A31.25 31.25 0 0 1 469.4825 374.765M468.261875 937.753125A31.253125 31.253125 0 0 1 437.5 906.015V537.973125L83.8625 420.053125A31.2675 31.2675 0 1 1 103.6375 360.7268750000001L468.7499999999999 482.43125L833.8625 360.7268750000001A31.2675 31.2675 0 1 1 853.6374999999999 420.053125L499.9999999999999 537.973125V906.015A31.253125 31.253125 0 0 1 468.261875 937.753125" />
    <glyph glyph-name="back"
      unicode="&#xEA26;"
      horiz-adv-x="1555.5555555555557" d="M497.1175000000001 889.5333333333333A55.5555555555556 55.5555555555556 0 0 1 458.9230555555557 872.6066666666667L127.4197222222223 538.6477777777777C105.7330555555556 516.9511111111111 105.7330555555556 481.7844444444444 127.4197222222223 460.088888888889L458.9230555555557 128.5844444444446C511.2852777777779 74.0800000000002 591.9875000000001 154.7811111111112 537.4830555555557 207.1433333333334L300.8141666666668 443.8122222222222H1388.0541666666668C1463.1830555555557 442.7455555555555 1463.1830555555557 555.9855555555555 1388.0541666666668 554.9233333333333H300.8141666666668L537.4830555555557 794.0477777777777C574.0230555555556 829.3588888888888 547.9052777777779 891.1377777777777 497.1175000000001 889.5333333333333" />
    <glyph glyph-name="blank1"
      unicode="&#xEA27;"
      horiz-adv-x="1000" d="" />
    <glyph glyph-name="blender"
      unicode="&#xEA28;"
      horiz-adv-x="1200" d="M621.8253915475623 445.3286666666668C623.8193915475622 480.9213333333335 641.2380582142289 512.2786666666667 667.5160582142289 534.5073333333335C693.2860582142289 556.3406666666667 727.9727248808955 569.6853333333335 765.8193915475622 569.6853333333335C803.6280582142288 569.6853333333335 838.3140582142288 556.3406666666667 864.1033915475621 534.5073333333335C890.3627248808954 512.2786666666668 907.7813915475622 480.9206666666668 909.7940582142288 445.3666666666668C911.7873915475622 408.7953333333335 897.0967248808954 374.8220000000001 871.3267248808954 349.6380000000002C845.0487248808955 324.0213333333335 807.6720582142289 307.9473333333334 765.8193915475622 307.9473333333334S686.5147248808954 324.0206666666668 660.2553915475621 349.6380000000002C634.4660582142288 374.8220000000001 619.8127248808955 408.7953333333335 621.8253915475622 445.3286666666668M393.4173915475623 374.0733333333334C393.6620582142289 360.1446666666667 398.1013915475623 333.0786666666668 404.760058214229 311.942C418.7547248808956 267.2020000000001 442.4933915475623 225.8126666666667 475.5247248808956 189.3353333333333C509.4207248808957 151.842 551.1613915475623 121.7273333333333 599.3720582142289 100.3453333333334C650.0473915475623 77.8906666666667 704.9547248808956 66.4473333333334 761.9880582142289 66.5413333333335C818.9267248808956 66.6166666666668 873.8347248808956 78.2860000000001 924.5093915475622 100.9100000000002C972.7207248808955 122.4986666666669 1014.4227248808954 152.7460000000001 1048.2627248808956 190.2580000000002C1081.2753915475623 226.8853333333335 1104.976058214229 268.3500000000002 1119.0093915475622 313.0900000000002C1126.0627248808955 335.6953333333336 1130.5207248808956 358.6393333333335 1132.3080582142288 381.6586666666668C1134.0573915475622 404.3386666666668 1133.324058214229 427.0573333333334 1130.1073915475622 449.7560000000001C1123.8247248808957 493.9880000000001 1108.5313915475622 535.4906666666668 1084.9807248808957 573.3226666666668C1063.4433915475622 608.0866666666668 1035.6787248808955 638.5220000000002 1002.6673915475621 664.1386666666667L1002.742058214229 664.1946666666668L669.5913915475624 920.1546666666668C669.2907248808956 920.3813333333334 669.046058214229 920.6253333333334 668.7260582142289 920.8326666666668C646.8687248808957 937.6213333333334 610.1127248808957 937.5653333333335 586.0727248808956 920.7386666666667C561.770058214229 903.7233333333334 558.9860582142289 875.5846666666667 580.618058214229 857.8353333333334L580.5247248808956 857.7413333333334L719.4767248808955 744.5260000000001L295.9607248808956 744.0740000000001H295.3967248808956C260.390058214229 744.0366666666667 226.7387248808956 721.2073333333334 220.0800582142289 692.1646666666668C213.2327248808955 662.576 237.0093915475622 638.0326666666667 273.4067248808956 637.9006666666668L273.3507248808956 637.7686666666668L488.0147248808955 638.1833333333334L104.9600582142289 343.9766666666668C104.4713915475622 343.6193333333336 103.9447248808956 343.2433333333335 103.4933915475623 342.8853333333335C67.3580582142289 315.1986666666669 55.6767248808956 269.1593333333335 78.4373915475622 240.0233333333336C101.5367248808956 210.3973333333336 150.6507248808956 210.340666666667 187.1613915475623 239.8540000000003L396.2200582142289 411.058666666667S393.1733915475623 387.9453333333337 393.4173915475623 374.0733333333337M934.9707248808955 296.6773333333338C891.8953915475622 252.7653333333338 831.5893915475622 227.8640000000004 766.3360582142288 227.7326666666671C700.9887248808956 227.6193333333338 640.6827248808955 252.2953333333338 597.6067248808955 296.1313333333337C576.5580582142288 317.4946666666671 561.0960582142288 342.0760000000005 551.5593915475622 368.2573333333337C542.2100582142289 393.9866666666672 538.5793915475622 421.2973333333338 540.9873915475622 448.8526666666671C543.2633915475622 475.7873333333338 551.2767248808955 501.4793333333337 564.0673915475622 524.7240000000004C576.6333915475623 547.5740000000004 593.9387248808955 568.2220000000004 615.3073915475622 585.6886666666671C657.1793915475622 619.8313333333338 710.4873915475623 638.3153333333338 766.2420582142288 638.3900000000004C822.0520582142287 638.4653333333338 875.3233915475622 620.1513333333338 917.2327248808956 586.1213333333337C938.564058214229 568.7300000000005 955.8507248808957 548.1573333333338 968.416058214229 525.3453333333338C981.2633915475622 502.1186666666671 989.2200582142289 476.5213333333338 991.590058214229 449.5120000000004C993.9607248808956 421.9940000000004 990.3300582142288 394.7206666666671 980.9813915475622 368.9720000000005C971.4253915475622 342.7160000000004 956.020058214229 318.1340000000004 934.9713915475622 296.6773333333338" />
    <glyph glyph-name="blender_logo_large"
      unicode="&#xEA29;"
      horiz-adv-x="3272.7275" d="M3149.001967057329 577.5287500000001Q3149.001967057329 562.7775 3138.535717057329 552.3118750000001Q3128.1107170573287 541.8868750000001 3113.360092057329 541.8868750000001Q3098.608842057329 541.8868750000001 3088.1432170573294 552.3118750000001Q3077.718217057329 562.7775 3077.718217057329 577.5287500000001T3088.1432170573294 602.704375Q3098.608842057329 613.170625 3113.360092057329 613.170625T3138.535717057329 602.704375Q3149.001967057329 592.2793750000001 3149.001967057329 577.5293750000001M3141.173217057329 577.5293750000001Q3141.173217057329 589.025625 3133.014467057329 597.266875Q3124.8969670573288 605.548125 3113.4013420573287 605.548125T3093.7469670573287 597.266875Q3085.6294670573284 589.025625 3085.6294670573284 577.5293750000001T3093.7469670573287 557.75125Q3101.9050920573286 549.5106250000001 3113.4013420573287 549.5106250000001T3133.014467057329 557.75125Q3141.173217057329 566.03375 3141.173217057329 577.5293750000001M3133.385717057329 560.635625H3122.218842057329L3111.464467057329 573.65625H3107.9207170573286V560.635625H3099.185717057329V596.1125H3112.659467057329Q3116.409467057329 596.1125 3118.675717057329 595.8243749999999Q3120.9419670573293 595.535625 3123.166342057329 594.3406249999999Q3125.5975920573296 592.98125 3126.7100920573293 591.044375Q3127.8638420573293 589.108125 3127.8638420573293 586.22375Q3127.8638420573293 582.350625 3125.680092057329 579.836875T3119.9938420573294 575.9224999999999zM3118.139467057329 585.564375Q3118.139467057329 586.676875 3117.645717057329 587.583125Q3117.1919670573293 588.53125 3116.0794670573287 589.1081250000001Q3115.0494670573285 589.6850000000001 3113.689467057329 589.808125Q3112.3707170573293 589.9731250000001 3110.681967057329 589.9731250000001H3107.9213420573287V579.960625H3110.022592057329Q3112.2063420573286 579.960625 3113.772592057329 580.2487500000001Q3115.338217057329 580.5787500000001 3116.285092057329 581.3206250000001Q3117.233217057329 582.0206250000001 3117.6863420573295 583.0506250000001Q3118.1394670573295 584.0812500000002 3118.1394670573295 585.5643750000002zM1115.284467057329 641.618125V296.7531250000001H1195.0825920573288V320.6218750000001C1217.532592057329 298.1556250000001 1246.678842057329 288.1393750000001 1286.338217057329 288.1393750000001C1372.8144670573288 288.1393750000001 1432.0288420573288 343.5706250000001 1432.0288420573288 422.8056250000001C1432.0288420573288 503.6287500000001 1372.3007170573287 557.5543750000002 1284.897592057329 557.5543750000002C1244.2800920573286 557.5543750000002 1215.1350920573286 545.7006250000002 1195.0825920573288 524.0937500000001V621.051875zM2506.371967057329 641.618125L2426.6069670573293 621.0518750000001V524.09375C2406.454467057329 545.700625 2377.290717057329 557.5543749999999 2336.755092057329 557.5543749999999C2249.303217057329 557.5543749999999 2189.592592057329 503.629375 2189.592592057329 422.805625C2189.592592057329 343.57 2248.8925920573292 288.1393750000001 2335.318842057329 288.1393750000001C2374.9457170573287 288.1393750000001 2404.040717057329 298.1556250000001 2426.606342057329 320.6218750000001V296.7531250000001H2506.371967057329zM1451.753217057329 621.051875V296.753125H1531.020717057329V621.051875zM2680.795717057329 563.9356250000001C2584.317592057329 563.9356250000001 2525.978842057329 510.355625 2525.978842057329 426.3256250000001C2525.978842057329 341.7825000000001 2585.226967057329 288.2881250000001 2680.795717057329 288.2881250000001C2738.1438420573286 288.2881250000001 2782.617592057329 307.945625 2810.0269670573293 342.496875L2743.3544670573287 380.930625C2733.815717057329 357.555 2711.329467057329 343.719375 2680.795717057329 343.719375C2642.558217057329 343.719375 2616.821967057329 367.588125 2615.7807170573287 405.296875H2835.596967057329V416.3925000000001C2835.596967057329 510.85375 2780.1500920573285 563.93625 2680.794467057329 563.93625M1705.4638420573287 563.8043749999999C1608.9363420573286 563.8043749999999 1550.7113420573287 510.20625 1550.7113420573287 426.17625C1550.7113420573287 341.63375 1609.9282170573288 288.13875 1705.4638420573287 288.13875C1762.7957170573286 288.13875 1807.2963420573285 307.72875 1834.7550920573285 342.3293749999999L1768.0844670573292 380.78125C1758.529467057329 357.339375 1736.065717057329 343.5025000000001 1705.4657170573291 343.5025000000001C1667.2938420573291 343.5025000000001 1641.486967057329 367.4406250000001 1640.478217057329 405.165H1860.2500920573293V416.193125C1860.2500920573293 510.704375 1804.8200920573292 563.8043749999999 1705.465092057329 563.8043749999999M3012.9513420573294 563.256875C2984.2025920573296 563.256875 2958.9263420573293 548.9412500000001 2935.037592057329 520.17625V534.890625H2855.271967057329V296.7531250000001H2935.036967057329V411.9093750000001C2935.036967057329 463.918125 2963.6538420573293 494.50125 3010.024467057329 494.50125C3019.1169670573286 494.50125 3027.681967057329 494.50375 3035.368842057329 493.495V561.389375C3025.8300920573292 562.33125 3018.6538420573293 563.255625 3012.950092057329 563.255625zM2060.0175920573292 560.928125C2021.7963420573292 560.928125 1987.9050920573293 545.7 1959.6863420573293 515.579375V534.890625H1879.970092057329V296.7531250000001H1959.6857170573292V423.7475C1959.6857170573292 469.6224999999999 1988.3857170573292 496.95 2034.2607170573292 496.95C2079.6563420573293 496.95 2090.0544670573295 473.0762500000001 2090.0544670573295 421.3656249999999V296.753125H2169.8875920573296V438.5750000000001C2169.8875920573296 472.53125 2168.9450920573295 498.371875 2154.5794670573296 519.780625C2137.3700920573297 545.701875 2104.0413420573295 560.926875 2060.0169670573296 560.926875M2682.6832170573293 510.355625C2719.978217057329 510.355625 2744.3457170573292 490.353125 2747.1725920573294 458.810625H2618.2257170573293C2621.0525920573295 490.353125 2645.4375920573293 510.355625 2682.6832170573293 510.355625M1707.4482170573292 510.206875C1744.677592057329 510.206875 1769.0419670573292 490.2043749999999 1771.9019670573293 458.661875H1642.873842057329C1645.7832170573292 490.2043749999999 1670.1694670573293 510.206875 1707.4488420573293 510.206875M1270.5644670573292 495.4287499999999C1316.9194670573293 495.4287499999999 1346.067592057329 467.32375 1346.067592057329 421.795625C1346.067592057329 376.9287499999999 1316.456342057329 348.81 1270.5644670573292 348.81C1224.705717057329 348.81 1195.083217057329 377.920625 1195.083217057329 422.3075C1195.083217057329 466.826875 1224.705717057329 495.42875 1270.5644670573292 495.42875M2351.058217057329 495.42875C2396.950092057329 495.42875 2426.607592057329 466.826875 2426.607592057329 422.3075C2426.607592057329 377.9200000000001 2396.9500920573287 348.81 2351.058217057329 348.81C2305.133217057329 348.81 2275.473842057329 376.9287500000001 2275.473842057329 421.795625C2275.473842057329 467.32375 2304.7363420573292 495.42875 2351.058217057329 495.42875M612.3250920573289 458.29875C614.0769670573289 489.5600000000001 629.3857170573289 517.1018750000001 652.480092057329 536.625625C675.1288420573289 555.8025 705.6132170573288 567.523125 738.874467057329 567.523125C772.1032170573288 567.523125 802.5869670573289 555.8025 825.2525920573289 536.625625C848.3307170573288 517.1018750000001 863.6388420573288 489.5600000000001 865.4075920573289 458.331875C867.1600920573289 426.2106250000001 854.2488420573289 396.3712499999999 831.600717057329 374.2518750000001C808.505717057329 351.7525000000001 775.656967057329 337.634375 738.874467057329 337.634375S669.1769670573289 351.7525 646.0994670573289 374.251875C623.4338420573289 396.3712499999999 610.5557170573289 426.210625 612.3244670573289 458.2987499999999M410.8038420573289 395.13125C411.0188420573289 382.8981250000001 414.920717057329 359.1256250000002 420.772592057329 340.560625C433.0725920573289 301.2649999999999 453.9350920573289 264.911875 482.964467057329 232.873125C512.754467057329 199.9424999999999 549.438217057329 173.4918749999999 591.808842057329 154.711875C636.345092057329 134.99 684.6013420573291 124.93875 734.725092057329 125.0212499999999C784.766342057329 125.0874999999999 833.0219670573291 135.336875 877.558217057329 155.2081249999999C919.928842057329 174.1699999999999 956.5794670573288 200.7362499999999 986.320717057329 233.6831249999999C1015.333217057329 265.8543749999999 1036.163217057329 302.2731249999998 1048.4957170573289 341.5687499999999C1054.695092057329 361.42375 1058.6132170573292 381.5749999999998 1060.1832170573289 401.7937499999998C1061.7207170573288 421.7143749999999 1061.076342057329 441.6681249999998 1058.2494670573287 461.6049999999998C1052.7275920573288 500.4549999999998 1039.2875920573288 536.9068749999998 1018.590092057329 570.1349999999999C999.661342057329 600.669375 975.260717057329 627.4006249999999 946.247592057329 649.8999999999999L946.313842057329 649.9499999999999L653.521967057329 874.7625C653.256967057329 874.9612500000001 653.0425920573289 875.17625 652.761342057329 875.358125C633.551342057329 890.104375 601.2488420573289 890.054375 580.1213420573289 875.275C558.7625920573289 860.33125 556.3150920573289 835.615625 575.327592057329 820.026875L575.244467057329 819.94375L697.363217057329 720.6387500000001L325.1538420573291 720.241875H324.657592057329C293.892592057329 720.20875 264.316967057329 700.023125 258.465092057329 674.5150000000001C252.447592057329 648.5275 273.343217057329 626.970625 305.331967057329 626.8543750000001L305.282592057329 626.7387500000001L493.9419670573291 627.1025000000001L157.2913420573291 368.6962500000002C156.8613420573291 368.3825000000002 156.3988420573291 368.0525000000001 156.0019670573291 367.7381250000001C124.2444670573291 343.4193750000002 113.9782170573291 302.9837500000001 133.9819670573291 277.3925000000002C154.2825920573291 251.3718750000001 197.4469670573291 251.3225000000001 229.5344670573291 277.2437500000001L413.2675920573291 427.6156250000002S410.5894670573291 407.3143750000002 410.8038420573291 395.1306250000001M882.9313420573291 327.1531250000001C845.073842057329 288.5843750000002 792.0732170573291 266.7131250000001 734.725092057329 266.5975000000002C677.2938420573289 266.4981250000001 624.293842057329 288.1712500000002 586.436342057329 326.6731250000003C567.9375920573291 345.4368750000002 554.348842057329 367.0268750000003 545.966967057329 390.0231250000003C537.7507170573291 412.6212500000003 534.560092057329 436.6087500000002 536.6763420573291 460.8106250000002C538.6763420573291 484.4675000000002 545.718842057329 507.0331250000003 556.960092057329 527.4500000000003C568.0038420573289 547.5193750000003 583.2125920573291 565.6543750000003 601.992592057329 580.9956250000002C638.792592057329 610.9843750000002 685.642592057329 627.2181250000003 734.6425920573289 627.2843750000003C783.691967057329 627.3506250000003 830.509467057329 611.2656250000002 867.3419670573289 581.3762500000003C886.0888420573289 566.1012500000003 901.2813420573289 548.0318750000004 912.3244670573288 527.9950000000003C923.6157170573288 507.5950000000003 930.608842057329 485.1125000000003 932.691342057329 461.3893750000003C934.774467057329 437.2206250000004 931.583842057329 413.2662500000004 923.367592057329 390.6506250000004C914.969467057329 367.5893750000003 901.430092057329 345.9987500000002 882.931342057329 327.1531250000004" />
    <glyph glyph-name="boids"
      unicode="&#xEA2A;"
      horiz-adv-x="1000" d="M779.775256224954 935.07125C742.3721312249539 943.0425 699.533381224954 932.30875 661.000881224954 899.793125C627.557756224954 871.574375 595.271506224954 819.3824999999999 562.367756224954 755.38375C530.040256224954 818.78375 498.1296312249539 870.5925 464.711506224954 898.5725C426.129631224954 930.87625 383.083381224954 941.47125 345.570881224954 933.606875C270.546506224954 917.8775 223.666506224954 847.150625 192.617131224954 799.6956250000001A31.253125 31.253125 0 1 1 244.863381224954 765.515625C274.0508812249539 810.125 319.6133812249539 864.32 358.3883812249539 872.449375C377.7758812249539 876.511875 396.9646312249539 873.818125 424.5508812249539 850.720625S485.6658812249539 782.58375 520.864006224954 706.921875A31.25 31.25 0 0 1 549.1846312249539 688.855625H575.551506224954A31.25 31.25 0 0 1 603.8721312249539 706.8C639.8196312249539 783.108125 673.591506224954 828.575 701.2840062249539 851.941875S747.779631224954 878.07125 766.7133812249539 874.03625C804.5815062249538 865.9662500000001 849.6740062249539 811.2975 879.628381224954 765.515625A31.253125 31.253125 0 1 1 931.8746312249538 799.6956250000001C900.489631224954 847.6643750000001 854.5815062249538 919.13 779.775256224954 935.07125M218.4958812249539 499.28125C162.6127562249539 509.925625 111.7902562249539 476.9712500000001 69.4477562249539 426.16125A31.290625 31.290625 0 1 1 117.5440062249539 386.1218750000001C153.3265062249539 429.06125 180.6290062249539 442.86 206.7771312249539 437.88C232.9252562249539 432.8987500000001 271.7358812249538 402.369375 316.6402562249538 327.5281250000001A31.253125 31.253125 0 0 1 370.3515062249539 327.5281250000001C415.2558812249539 402.369375 454.0665062249539 432.8993750000001 480.2146312249539 437.88C506.3627562249539 442.8612500000001 533.665256224954 429.06125 569.447756224954 386.1218750000001A31.290625 31.290625 0 1 1 617.5440062249539 426.16125C575.201506224954 476.970625 524.3790062249539 509.925 468.4958812249539 499.28125C422.8446312249539 490.585625 383.1590062249539 451.3275 343.4958812249539 395.0331250000001C303.832756224954 451.3275 264.1471312249539 490.585625 218.4958812249539 499.28125M605.092756224954 248.1825000000001C591.910881224954 250.3825000000001 577.375256224954 247.5575000000001 565.5415062249539 241.3462500000001C541.8746312249539 228.9293750000001 525.216506224954 207.34375 504.5065062249539 174.2075A31.261875 31.261875 0 1 1 557.4852562249539 141.005C575.837756224954 170.36875 590.4296312249539 183.86375 594.5946312249539 186.0487499999999C596.675881224954 187.1424999999999 595.263381224954 186.4862499999999 594.8446312249539 186.5487499999999C594.4071312249539 186.6112499999998 596.0071312249539 186.3612499999999 599.7258812249538 183.4987499999999C614.6002562249539 171.9487499999998 646.4208812249539 122.3324999999999 696.2833812249538 71.6824999999999A31.253125 31.253125 0 0 1 740.7171312249538 71.6824999999999C790.5796312249538 122.3324999999999 822.4002562249539 171.9487499999998 837.2746312249539 183.4987499999999C840.9933812249539 186.3862499999998 842.5808812249538 186.6237499999999 842.1558812249539 186.5487499999999C841.7183812249538 186.4862499999999 840.3183812249538 187.1737499999999 842.4058812249539 186.0487499999999C846.5683812249539 183.8612499999999 861.1627562249539 170.36875 879.5152562249539 141.005A31.261875 31.261875 0 1 1 932.4940062249538 174.2075C911.784006224954 207.34375 895.1258812249539 228.9293750000001 871.459006224954 241.3462500000001C859.625256224954 247.5525 845.0896312249539 250.380625 831.907756224954 248.1825000000001C818.726506224954 245.9825000000001 807.925881224954 239.8950000000001 798.949006224954 232.9237500000001C770.808381224954 211.0718750000001 747.0352562249541 175.2862500000001 718.504631224954 140.8825000000001C689.9740062249541 175.2856250000001 666.2008812249541 211.0718750000001 638.0602562249541 232.9237500000001C629.083381224954 239.8943750000001 618.282756224954 245.984375 605.101506224954 248.1825000000001z" />
    <glyph glyph-name="bold"
      unicode="&#xEA2B;"
      horiz-adv-x="785.7142857142858" d="M143.1356718405984 928.1842857142856C103.6885289834556 928.1807142857144 71.7113861263128 896.2028571428572 71.707100412027 856.7557142857142V511.2085714285714A71.2142857142857 71.2142857142857 0 0 1 71.707100412027 487.9107142857143V143.2442857142857C71.7113861263128 103.7964285714285 103.6885289834556 71.8192857142857 143.1356718405984 71.8157142857142H429.2521004120271C586.2013861263127 71.8157142857142 714.9663861263127 154.8078571428571 714.9663861263127 311.7571428571428C714.9663861263127 438.0049999999999 682.797100412027 477.6149999999999 587.4549575548842 529.2457142857143C620.1342432691699 575.6864285714286 643.5378146977413 622.8307142857143 643.5378146977413 683.5078571428571C643.5378146977413 840.4571428571428 514.7728146977414 928.1842857142856 357.8235289834556 928.1842857142856zM214.5642432691699 785.3271428571428H357.8235289834556C437.567100412027 785.3271428571428 500.6806718405984 763.2514285714285 500.6806718405984 683.5078571428571S437.567100412027 570.6392857142857 357.8235289834556 570.6392857142857H214.5642432691699zM214.5642432691699 427.7821428571429H429.2521004120271C508.9956718405984 427.7821428571429 572.10924326917 391.5007142857143 572.10924326917 311.7571428571429S508.9956718405984 214.6728571428571 429.2521004120271 214.6728571428571H214.5642432691699z" />
    <glyph glyph-name="bone_data"
      unicode="&#xEA2C;"
      horiz-adv-x="1000" d="M343.9940625000001 937.5C292.4846875 937.5 250.2440625000001 895.01625 250.2440625000001 843.75V750H156.4940625000001C105.2278125 750 62.7440625 707.76 62.7440625 656.25S105.2278125 562.5 156.4940625000001 562.5H218.9940625000001C245.6328125000001 562.5 266.8959375000001 575.85875 283.6915625000001 593.871875L593.8721875 283.5693750000001C575.6946875 266.7818750000002 562.2559375 245.5256250000001 562.2559375 218.75V156.25C562.2559375 104.984375 604.4959375 62.5 656.0059375 62.5S749.7559375 104.98375 749.7559375 156.25V250H843.5059375C894.7721875000001 250 937.2559375 292.24 937.2559375 343.75S894.7721875000001 437.5 843.5059375 437.5H781.0059375C754.3671874999999 437.5 733.1046875 424.140625 716.3084375 406.128125L406.1278125 716.430625C424.3059375000001 733.218125 437.7440625000001 754.47375 437.7440625000001 781.25V843.75C437.7440625000001 895.01625 395.5040625000001 937.5 343.9940625000001 937.5" />
    <glyph glyph-name="bookmarks"
      unicode="&#xEA2D;"
      horiz-adv-x="687.5" d="M93.75 937.526875C76.491875 937.525 62.501875 923.535 62.5 906.276875V93.776875C62.510625 65.9443750000002 96.1575 52.0081250000001 115.845 71.681875L343.75 299.5875L571.655 71.6818749999999C591.3425 52.0081249999998 624.989375 65.9443749999998 625 93.7768749999999V906.276875C624.998125 923.535 611.0081250000001 937.525 593.75 937.526875z" />
    <glyph glyph-name="bordermove"
      unicode="&#xEA2E;"
      horiz-adv-x="1000" d="M562.276786652048 937.7225V812.7225H499.7767866520481V937.7225zM374.7767866520481 937.7225V875.2225H249.7767866520481V937.7225zM124.7767866520481 937.7225V812.7225H62.2767866520481V937.7225zM499.7767866520481 750.2225C637.126161652048 750.2225 749.776786652048 637.571875 749.776786652048 500.2225C749.776786652048 442.744375 729.3186616520481 390.25875 696.309911652048 347.87875L928.121161652048 116.0675000000001A31.253125 31.253125 0 1 0 883.931786652048 71.8775000000001L652.120536652048 303.6893750000002C609.748661652048 270.7031250000001 557.233036652048 250.2225000000001 499.7767866520479 250.2225000000001C362.426786652048 250.2225000000001 249.8986616520479 362.8731250000001 249.8986616520479 500.2225000000001S362.426786652048 750.2225000000001 499.7767866520479 750.2225000000001M124.7767866520479 687.7225000000001V562.7225000000001H62.2767866520479V687.7225000000001zM499.7767866520479 687.5975000000001C396.518036652048 687.5975000000001 312.2767866520479 603.4775000000002 312.2767866520479 500.2193750000001S396.518036652048 312.7193750000002 499.7767866520479 312.7193750000002C603.0349116520479 312.7193750000002 687.276786652048 396.9612500000001 687.276786652048 500.2193750000001C687.276786652048 603.4781250000001 603.0349116520479 687.5975000000001 499.7767866520479 687.5975000000001M124.7767866520479 437.7225000000001V312.7225000000001H62.2767866520479V437.7225000000001zM562.276786652048 187.7225000000001V62.7225000000001H499.7767866520479V187.7225000000001zM124.7767866520479 187.7225000000001V62.7225000000001H62.2767866520479V187.7225000000001zM374.7767866520479 125.2225000000001V62.7225000000001H249.7767866520479V125.2225000000001zM562.276786652048 937.7225V718.9725H499.7767866520481V875.2225H124.7767866520481V125.2225H499.7767866520481V265.8475H562.276786652048V62.7225H62.2767866520481V937.7225z" />
    <glyph glyph-name="brush_data"
      unicode="&#xEA2F;"
      horiz-adv-x="941.1764705882354" d="M529.4117647058823 941.1764705882352C500.8170588235295 941.1764705882352 471.8270588235295 931.7458823529412 449.2188235294119 911.65C426.6105882352943 891.5535294117647 411.764705882353 860.2941176470588 411.764705882353 823.5294117647059V588.2352941176471H205.8823529411765C189.6394117647059 588.2335294117647 176.4723529411765 575.0664705882352 176.4705882352942 558.8235294117646V323.5294117647059C176.4705882352942 303.9217647058823 165.7600000000001 280.8794117647058 148.3223529411765 263.4423529411765S107.8429411764706 235.2941176470588 88.2352941176471 235.2941176470588C71.9923529411765 235.2923529411765 58.8252941176471 222.1252941176471 58.8235294117648 205.8823529411765V88.2352941176471C58.8252941176471 71.9923529411764 71.9923529411765 58.825294117647 88.2352941176471 58.8235294117646H264.7058823529412A29.4117647058824 29.4117647058824 0 0 1 285.5011764705883 67.4399999999999L352.9411764705883 134.8805882352941V88.2352941176471C352.9429411764707 71.9923529411764 366.11 58.825294117647 382.3529411764707 58.8235294117646H676.4705882352941C781.0458823529412 58.8235294117646 882.3529411764706 144.9582352941177 882.3529411764706 264.7058823529411V558.8235294117646C882.3511764705883 575.0664705882352 869.1841176470589 588.2335294117647 852.9411764705883 588.2352941176471H647.0588235294118V823.5294117647059C647.0588235294118 860.2941176470588 632.2129411764706 891.5535294117647 609.604705882353 911.65C586.9964705882353 931.7458823529412 558.0064705882353 941.1764705882352 529.4117647058823 941.1764705882352M529.4117647058823 882.3529411764706C544.934705882353 882.3529411764706 560.0623529411765 877.0764705882353 570.5423529411765 867.7617647058823C581.0223529411766 858.4464705882353 588.2352941176471 845.5882352941177 588.2352941176471 823.5294117647059V588.2352941176471H558.8235294117648C519.049411764706 588.8235294117646 519.049411764706 528.8494117647058 558.8235294117648 529.4117647058823H823.5294117647059V470.5882352941177H235.2941176470589V529.4117647058823H441.1764705882354C457.419411764706 529.4135294117648 470.5864705882353 542.580588235294 470.5882352941177 558.8235294117646V823.5294117647059C470.5882352941177 845.5882352941177 477.8011764705883 858.4464705882353 488.2811764705883 867.7617647058823C498.7611764705883 877.0776470588236 513.8888235294118 882.3529411764706 529.4117647058823 882.3529411764706M235.2941176470589 411.764705882353H823.5294117647059V264.7058823529411C823.5294117647059 178.5711764705882 748.3658823529412 117.6470588235294 676.4705882352941 117.6470588235294H647.0588235294118V205.8823529411765C647.3176470588236 222.4864705882353 633.7911764705882 236.0135294117647 617.1876470588236 235.7535294117647C600.9435294117648 235.4999999999999 587.9817647058824 222.1258823529412 588.2352941176471 205.8823529411765V117.6470588235294H411.764705882353V205.8823529411765C411.754705882353 232.0776470588235 380.0870588235295 245.1941176470588 361.5576470588236 226.6776470588236L252.5276470588236 117.6470588235294H117.6470588235295V189.5682352941177C143.7752941176471 196.6176470588235 170.9470588235295 202.8864705882354 189.9129411764706 221.8517647058824C216.5929411764707 248.5323529411766 235.2941176470589 284.3135294117648 235.2941176470589 323.5294117647059z" />
    <glyph glyph-name="brushes_all"
      unicode="&#xEA30;"
      horiz-adv-x="1000" d="M187.3884374999999 937.70375C150.9609375 937.70375 118.0940625 928.07875 95.1028124999999 905.11C72.1121875 882.14125 62.5103124999999 849.16 62.5103124999999 812.70375V624.7162500000001H437.5103125V780.11C437.3853125 801.16625 448.6596875 825.60375 467.1734375 844.1975S510.2909375 874.3162500000001 531.5046875 874.4725000000001C572.6078125 875.2225000000001 572.3734375 936.57875 531.2546875 936.9725H531.0046875L375.0103125000001 937.21625V906.8225C375.6353125000001 864.5600000000001 311.9128125000001 864.5600000000001 312.5103125000001 906.8225V937.34125H250.0103125000001V906.6975C250.6353125000001 864.4350000000001 186.9128125 864.4350000000001 187.5103125 906.6975V937.46H187.3853125000001zM62.5103124999999 562.2162500000001V530.9662500000001C62.5103124999999 515.21 72.7646875 499.835 93.7603124999999 500.5725L187.6321874999999 499.9475L187.5071874999999 125.3162500000001C186.3134374999999 40.7975 313.7028125 40.7975 312.5071875 125.3162500000001L312.3821875 499.9475L406.2540625000001 500.5725C426.3396875 500.5725 437.5040625000001 515.9725000000001 437.5040625000001 530.9662500000001V562.2162500000001zM812.5103124999999 938.0725C780.9615625 938.0725 749.4128125000001 916.97875 750.0103124999999 874.71625V437.2162500000001H875.0103124999999V874.7162500000001C875.6353124999999 916.97875 844.0590625000001 938.0725 812.5103124999999 938.0725M812.5103124999999 373.86C743.8446875 373.86 687.5103124999999 317.5287500000001 687.5103124999999 248.8599999999999C687.5103124999999 197.1474999999999 679.2203125000001 165.3162499999999 666.7584375 149.2537500000001S635.5221875000001 124.7162500000001 593.7603124999999 124.7162500000001C586.3896875 124.7162500000001 579.2984375 121.8412500000001 573.7409375000001 117.0287500000001C572.1721875000001 115.6537500000001 570.7409375000001 114.1537500000002 569.4659375 112.5287500000001A31.3125 31.3125 0 0 1 563.9721875 101.4225C563.7221875 100.4225000000001 563.5346875 99.3600000000001 563.3471875 98.36Q563.0659375 96.76625 562.9721875 95.1725C562.8471875 93.1100000000001 562.9246875 90.985 563.2221875 88.9225C563.5346875 86.8600000000001 564.0846875 84.86 564.8096875 82.9225000000001C565.4784375 80.9850000000001 566.3346875 79.1100000000001 567.3721875 77.2975000000001C567.9346875 76.3600000000001 568.5471875 75.485 569.2034375 74.6100000000001C571.7221874999999 71.2975000000001 574.8721875 68.4850000000001 578.4809375 66.4350000000002C583.1184374999999 63.7475000000002 588.3728125 62.2475000000002 593.7396875 62.1850000000002C719.9421875 62.1850000000002 800.5878125 78.6912500000003 854.3596875000001 108.8162500000001C907.8746875 138.7975000000001 931.2765625 185.8287500000001 935.6584375 228.6912500000001C936.7521875 235.3537500000002 937.4896875 242.0787500000002 937.4896875 248.8287500000002C937.4896875 317.4975000000001 881.1553125 373.8287500000002 812.4896875000001 373.8287500000002z" />
    <glyph glyph-name="camera_data"
      unicode="&#xEA31;"
      horiz-adv-x="1000" d="M676.4720588235294 764.8370588235294C628.089705882353 764.8370588235294 588.2367647058824 724.9841176470588 588.2367647058824 676.6017647058823S628.089705882353 588.3664705882352 676.4720588235294 588.3664705882352S764.7073529411765 628.2194117647059 764.7073529411765 676.6017647058823S724.8544117647059 764.8370588235293 676.4720588235294 764.8370588235293M676.4720588235294 706.0135294117647C693.0638235294117 706.0135294117647 705.8838235294118 693.1958823529412 705.8838235294118 676.6017647058823S693.0638235294117 647.1899999999999 676.4720588235294 647.1899999999999S647.060294117647 660.0076470588235 647.060294117647 676.6017647058823S659.880294117647 706.0135294117647 676.4720588235294 706.0135294117647M264.7073529411765 647.1899999999999A29.4117647058824 29.4117647058824 0 0 1 235.2955882352942 617.7782352941176A29.4117647058824 29.4117647058824 0 0 1 264.7073529411765 588.3664705882352A29.4117647058824 29.4117647058824 0 0 1 294.1191176470589 617.7782352941176A29.4117647058824 29.4117647058824 0 0 1 264.7073529411765 647.1899999999999M676.4726470588234 941.0723529411764C565.3461764705883 941.0723529411764 473.1408823529412 866.99 434.9732352941177 764.6017647058824H404.5273529411765C366.5261764705883 800.6723529411764 317.6126470588236 823.3017647058823 264.8214705882353 823.425294117647H264.7038235294118C151.3467647058824 823.425294117647 58.8214705882353 730.9017647058823 58.8214705882353 617.5429411764705S151.3467647058824 411.6605882352941 264.7038235294118 411.6605882352941L617.6485294117647 411.6547058823529H646.9455882352942C858.374411764706 411.6547058823529 941.1779411764707 558.7194117647059 941.1779411764707 676.3664705882352C941.1779411764707 822.2135294117647 822.3167647058823 941.0723529411764 676.4720588235294 941.0723529411764zM676.4726470588234 882.4841176470588C790.5267647058823 882.4841176470588 882.355 790.6547058823529 882.355 676.6017647058823C882.355 563.1958823529412 791.4591176470589 472.1017647058824 678.3108823529411 471.0664705882352C676.0049999999999 471.0664705882352 673.6932352941177 471.1017647058823 671.4161764705882 470.4782352941176H264.7079411764707C183.1414705882354 470.4782352941176 117.6491176470589 535.9723529411764 117.6491176470589 617.5370588235294C117.6491176470589 699.0664705882352 183.0802941176471 764.5311764705882 264.5932352941178 764.5958823529411C306.379117647059 764.5958823529411 346.1261764705883 746.6664705882351 373.9667647058825 715.5370588235294A29.4117647058824 29.4117647058824 0 0 1 395.9120588235295 705.7723529411765H448.989705882353C462.4067647058824 705.7664705882353 474.1285294117648 714.8429411764705 477.4838235294118 727.8311764705882C500.9626470588236 818.7664705882353 582.5479411764707 882.0899999999999 676.4726470588234 882.2429411764705zM205.4250000000001 353.5311764705882C189.1814705882354 353.5311764705882 176.2191176470589 339.9017647058822 176.4726470588236 323.6605882352941V206.0135294117647C177.0020588235295 167.3488235294117 234.7491176470589 167.3488235294117 235.2961764705883 206.0135294117647V235.425294117647H294.119705882353V147.19A29.4117647058824 29.4117647058824 0 0 1 302.7350000000001 126.3958823529412L361.5585294117648 67.5723529411765C367.0702941176471 62.0429411764706 374.5550000000001 58.9547058823529 382.3550000000001 58.9547058823529H676.4726470588234C692.7155882352941 58.9547058823529 705.8826470588235 72.1252941176471 705.8844117647059 88.3664705882352V176.8311764705882H725.6455882352941L879.7126470588236 64.8135294117645C884.7244117647059 61.0488235294115 890.8020588235295 58.9899999999998 897.0608823529411 58.9311764705881H911.7667647058825C928.009705882353 58.9311764705881 941.1767647058824 72.1017647058823 941.1785294117645 88.3429411764704V323.6370588235293C941.1767647058824 339.8782352941174 928.009705882353 353.0488235294116 911.7667647058825 353.0488235294116H897.0608823529411C890.8255882352942 353.0547058823528 884.7508823529412 351.0488235294116 879.7126470588236 347.4017647058822L725.760294117647 235.425294117647H705.8844117647059V353.0723529411764H294.119705882353V294.0958823529411H235.2961764705883V323.6605882352941C235.5314705882353 340.2664705882353 222.0285294117647 353.79 205.425 353.5311764705882M647.0597058823529 294.0488235294116V117.8194117647058H394.5320588235295L352.9432352941178 159.3664705882352V294.0429411764705C473.3502941176471 294.0899999999998 523.5891176470589 294.0429411764705 647.0597058823529 294.0488235294116M882.355 276.5547058823528V135.4723529411764L785.2732352941176 206.0135294117647z" />
    <glyph glyph-name="camera_stereo"
      unicode="&#xEA32;"
      horiz-adv-x="1000" d="M228.9431250000001 938.22125C205.2175 938.59625 181.1637500000001 934.14625 158.8743750000001 924.915625C100.5706250000001 900.765625 62.3168750000001 843.613125 62.3168750000001 780.50625V561.7562499999999H124.8168750000001V780.5062499999999C124.8168750000001 818.514375 147.6856250000001 852.6312499999999 182.800625 867.17625C216.7818750000001 881.2518749999999 271.6518750000001 870.7325 290.2218750000001 852.16125L321.4718750000001 820.91125C350.9268750000001 790.2718749999999 396.3012500000001 835.6468749999999 365.6618750000001 865.1012499999999L334.4118750000001 896.3512499999999C312.4468750000001 918.315625 283.4918750000001 931.554375 252.5025 936.268125A173.75 173.75 0 0 1 228.943125 938.218125zM771.056875 938.22125C763.1487500000001 938.09625 755.245 937.44625 747.4975000000001 936.27125C716.5081250000001 931.55875 687.553125 918.31875 665.588125 896.354375L634.338125 865.104375C603.69875 835.65 649.07375 790.275 678.528125 820.9143750000001L709.778125 852.1643750000001C728.34875 870.735625 783.21875 881.255 817.2 867.179375C852.3149999999999 852.63125 875.1831249999999 818.514375 875.1831249999999 780.50625V561.75625H937.683125V780.50625C937.683125 843.6131250000001 899.4293749999999 900.765 841.1256249999999 924.915625C818.83625 934.146875 794.7825 938.575625 771.056875 938.221875M93.566875 499.25625A31.253125 31.253125 0 0 1 62.316875 468.0062499999999V93.0062499999999A31.253125 31.253125 0 0 1 93.566875 61.7562499999999H343.9331250000001A31.25 31.25 0 0 1 369.9343750000001 75.6725L485.656875 249.2562499999999H514.709375L630.431875 75.6725A31.25 31.25 0 0 1 656.433125 61.7562499999999H906.066875A31.253125 31.253125 0 0 1 937.316875 93.0062499999999V468.0062499999999A31.253125 31.253125 0 0 1 906.066875 499.25625zM437.6831250000001 436.7562499999999V290.0274999999999L327.209375 124.2562499999999H124.8168750000001L125.1831250000001 436.634375zM562.316875 436.7562499999999L874.816875 436.6312499999999V124.2562499999999H673.1568749999999L562.6831249999999 290.0274999999999zM218.5668750000001 374.2562499999999C201.30875 374.254375 187.31875 360.264375 187.3168750000001 343.0062499999999V218.0062499999999C187.31875 200.748125 201.30875 186.758125 218.5668750000001 186.7562499999999H281.4331250000001A31.25625 31.25625 0 0 1 307.4343750000001 200.6725L369.9343750000001 294.4225A31.225 31.225 0 0 1 375.1843750000001 312.1225L374.809375 343.3725C374.6218750000001 360.4875 360.6756250000001 374.255625 343.559375 374.2562499999999z" />
    <glyph glyph-name="cancel"
      unicode="&#xEA33;"
      horiz-adv-x="1000" d="M500 937.5C258.745 937.5 62.5 741.255625 62.5 500S258.745 62.5 500 62.5S937.5 258.744375 937.5 500S741.255 937.5 500 937.5M686.8893750000001 750.854375A62.50625 62.50625 0 0 0 731.6893750000002 643.3106250000001L588.37875 500L731.6893749999999 356.689375A62.50625 62.50625 0 1 0 643.3106250000001 268.3106250000001L500 411.6212500000001L356.689375 268.3106250000001A62.50625 62.50625 0 1 0 268.310625 356.689375L411.6212500000001 500L268.310625 643.3106250000001A62.50625 62.50625 0 0 0 311.8893750000001 750.610625A62.5 62.5 0 0 0 356.689375 731.689375L500 588.37875L643.3106250000001 731.6893749999999A62.5 62.5 0 0 0 686.8893750000001 750.854375" />
    <glyph glyph-name="cancel_large"
      unicode="&#xEA34;"
      horiz-adv-x="1000" d="M333.4200000000027 707.218125A16.8125 16.8125 0 0 1 321.5143750000027 702.29625L297.7206250000027 678.5024999999999C291.1581250000027 671.9224999999999 291.1581250000027 661.2712499999999 297.7206250000027 654.6924999999999L452.3956250000027 500.0174999999999L297.7206250000027 345.3418750000001C291.1581250000027 338.7625000000001 291.1581250000027 328.1112500000001 297.7206250000027 321.531875L321.5143750000027 297.7381250000001C328.0937500000028 291.1756250000001 338.7450000000027 291.1756250000001 345.3243750000027 297.7381250000001L499.9993750000027 452.413125L654.6743750000028 297.7381250000001C661.2543750000027 291.1756250000001 671.9062500000027 291.1756250000001 678.4856250000028 297.7381250000001L702.2787500000027 321.531875C708.8412500000027 328.1112500000001 708.8412500000027 338.7625000000001 702.2787500000027 345.3418750000001L547.6037500000027 500.016875L702.2787500000027 654.691875C708.8412500000027 661.271875 708.8412500000027 671.923125 702.2787500000027 678.5025L678.4856250000028 702.2962500000001C671.9062500000027 708.8587500000001 661.2543750000027 708.8587500000001 654.6750000000027 702.2962500000001L499.9987500000027 547.6212499999999L345.3237500000028 702.29625A16.80625 16.80625 0 0 1 333.4193750000027 707.218125M937.5050000000028 667.295625A33.6375 33.6375 0 0 1 927.6443750000026 691.089375L691.0718750000026 927.661875A33.6375 33.6375 0 0 1 667.2781250000027 937.5225H332.7212500000028A33.6375 33.6375 0 0 1 308.9275000000028 927.661875L72.3550000000027 691.089375A33.6375 33.6375 0 0 1 62.4943750000027 667.295625V332.73875A33.6375 33.6375 0 0 1 72.3550000000027 308.9450000000001L308.9275000000027 72.3725000000001A33.6375 33.6375 0 0 1 332.7212500000028 62.51125H667.2781250000028A33.6375 33.6375 0 0 1 691.0718750000028 72.3725000000001L927.6443750000028 308.9450000000001A33.6375 33.6375 0 0 1 937.5056250000029 332.73875zM887.0237500000028 653.363125A16.8125 16.8125 0 0 1 882.0937500000027 665.259375L665.2425000000027 882.1112499999999A16.8125 16.8125 0 0 1 653.3456250000027 887.04125H346.6537500000027A16.8125 16.8125 0 0 1 334.7575000000027 882.1112499999999L117.9050000000027 665.259375A16.8125 16.8125 0 0 1 112.9750000000027 653.363125V346.67125A16.8125 16.8125 0 0 1 117.9050000000027 334.774375L334.7568750000027 117.9231249999999A16.8125 16.8125 0 0 1 346.6531250000027 112.993125H653.3450000000028A16.8125 16.8125 0 0 1 665.2418750000028 117.9231249999999L882.0931250000028 334.774375A16.8125 16.8125 0 0 1 887.0231250000028 346.67125z" />
    <glyph glyph-name="center_only"
      unicode="&#xEA35;"
      horiz-adv-x="1066.6666666666665" d="M766.7107827426046 533.9626666666667A33.3366666666667 33.3366666666667 0 0 1 743.5334494092713 476.6706666666666L886.6327827426046 333.572H180.5127827426047L323.612116075938 476.6706666666666A33.3366666666667 33.3366666666667 0 1 1 276.476116075938 523.8066666666666L79.3407827426047 326.6706666666667A33.3366666666667 33.3366666666667 0 0 1 79.2074494092714 273.8066666666666A33.3333333333333 33.3333333333333 0 0 1 79.7407827426047 273.4066666666667L276.4854494092714 76.6613333333334A33.3366666666667 33.3366666666667 0 1 1 323.6214494092714 123.7973333333333L180.5127827426047 266.9053333333334H886.6327827426046L743.5334494092713 123.8066666666667A33.3366666666667 33.3366666666667 0 1 1 790.6694494092712 76.6706666666668L988.3254494092712 274.4573333333335A33.3333333333333 33.3333333333333 0 0 1 989.6254494092713 275.4973333333335L990.6654494092712 276.6706666666668A33.3366666666667 33.3366666666667 0 0 1 992.225449409271 322.1133333333335A33.3333333333333 33.3333333333333 0 0 1 990.6654494092712 323.8066666666668A33.3333333333333 33.3333333333333 0 0 1 989.9987827426046 324.4733333333334L790.6501160759378 523.8226666666667A33.3333333333333 33.3333333333333 0 0 1 766.7107827426046 533.9626666666668M600.0447827426046 833.694A99.88 99.88 0 0 0 500.166116075938 733.816A99.88 99.88 0 0 0 400.2881160759381 833.694A99.88 99.88 0 0 0 500.166116075938 933.5726666666666A99.88 99.88 0 0 0 600.0447827426046 833.694M933.3781160759378 833.694A99.88 99.88 0 0 0 833.4994494092714 733.816A99.88 99.88 0 0 0 733.6214494092712 833.694A99.88 99.88 0 0 0 833.4994494092714 933.5726666666666A99.88 99.88 0 0 0 933.3781160759378 833.694M266.7114494092713 833.694A99.88 99.88 0 0 0 166.8327827426047 733.816A99.88 99.88 0 0 0 66.9547827426047 833.694A99.88 99.88 0 0 0 166.8327827426047 933.5726666666666A99.88 99.88 0 0 0 266.7114494092713 833.694" />
    <glyph glyph-name="char_notdef"
      unicode="&#xEA36;"
      horiz-adv-x="735.2941176470589" d="M149.2817647058824 189.090588235294L322.5141176470589 441.1358823529412L149.2817647058824 690.2176470588236zM190.624705882353 103.565294117647H543.4911764705884L367.1876470588236 362.8411764705882zM414.3029411764707 441.1358823529412L587.2876470588236 187.2529411764705V690.2176470588236zM544.2564705882354 775.4570588235293H190.624705882353L366.2682352941177 517.5923529411764zM74.1935294117648 776.5905882352941C74.1935294117648 819.3288235294118 107.2088235294118 854.0035294117647 147.9017647058824 854.0035294117647H590.1505882352942C630.8435294117647 854.0035294117647 661.1011764705883 819.3288235294118 661.1011764705883 776.5905882352941V105.6811764705882C661.1011764705883 62.9429411764705 630.8435294117647 28.2682352941175 590.1505882352942 28.2682352941175H147.9011764705883C107.2082352941177 28.2682352941175 74.1929411764706 62.9429411764704 74.1929411764706 105.6811764705882z" />
    </font>
</defs>
</svg>
